<?xml version="1.0" standalone="no"?>
<!DOCTYPE svg PUBLIC "-//W3C//DTD SVG 20010904//EN"
 "http://www.w3.org/TR/2001/REC-SVG-20010904/DTD/svg10.dtd">
<svg version="1.0" xmlns="http://www.w3.org/2000/svg"
 width="300.000000pt" height="300.000000pt" viewBox="0 0 300.000000 300.000000"
 preserveAspectRatio="xMidYMid meet">
<metadata>
Created by potrace 1.10, written by Peter Selinger 2001-2011
</metadata>
<g transform="translate(0.000000,300.000000) scale(0.100000,-0.100000)"
fill="#000000" stroke="none">
<path d="M1767 2869 c7 -7 15 -10 18 -7 3 3 -2 9 -12 12 -14 6 -15 5 -6 -5z"/>
<path d="M1060 2799 c0 -5 5 -7 10 -4 6 3 10 8 10 11 0 2 -4 4 -10 4 -5 0 -10
-5 -10 -11z"/>
<path d="M1246 2787 c3 -10 9 -15 12 -12 3 3 0 11 -7 18 -10 9 -11 8 -5 -6z"/>
<path d="M1030 2776 c0 -9 5 -16 10 -16 6 0 10 4 10 9 0 6 -4 13 -10 16 -5 3
-10 -1 -10 -9z"/>
<path d="M1138 2783 c7 -3 16 -2 19 1 4 3 -2 6 -13 5 -11 0 -14 -3 -6 -6z"/>
<path d="M1198 2783 c7 -3 16 -2 19 1 4 3 -2 6 -13 5 -11 0 -14 -3 -6 -6z"/>
<path d="M960 2758 c0 -6 6 -8 14 -5 7 3 19 1 25 -4 8 -6 8 -5 1 3 -13 15 -40
19 -40 6z"/>
<path d="M1433 2760 c-13 -5 -23 -11 -23 -14 0 -7 40 6 46 15 6 10 6 10 -23
-1z"/>
<path d="M925 2749 c-11 -16 -1 -19 13 -3 7 8 8 14 3 14 -5 0 -13 -5 -16 -11z"/>
<path d="M1379 2734 c-11 -14 -11 -16 0 -10 8 5 17 3 22 -5 5 -8 9 -9 9 -4 0
6 -4 16 -9 23 -6 10 -11 9 -22 -4z"/>
<path d="M1447 2725 c-37 -32 -21 -32 18 0 17 13 26 24 20 24 -5 0 -23 -11
-38 -24z"/>
<path d="M880 2730 c-12 -8 -11 -10 8 -10 12 0 22 5 22 10 0 13 -11 13 -30 0z"/>
<path d="M1280 2733 c0 -6 -9 -9 -20 -6 -16 4 -20 1 -19 -18 1 -16 3 -19 6 -7
2 9 10 15 18 12 14 -6 31 13 21 23 -3 4 -6 2 -6 -4z"/>
<path d="M1190 2720 c0 -6 -6 -8 -12 -4 -7 4 -10 4 -6 0 3 -4 10 -8 15 -8 4 0
13 -4 20 -9 7 -7 13 -6 17 0 4 6 -3 15 -14 21 -14 8 -20 8 -20 0z"/>
<path d="M1505 2720 c-3 -5 -1 -10 4 -10 6 0 11 5 11 10 0 6 -2 10 -4 10 -3 0
-8 -4 -11 -10z"/>
<path d="M1302 2713 c-6 -2 -10 -9 -7 -13 7 -11 35 -2 35 11 0 10 -8 10 -28 2z"/>
<path d="M1137 2694 c2 -7 11 -10 19 -7 19 7 18 10 -5 16 -13 3 -18 1 -14 -9z"/>
<path d="M1259 2672 c-13 -10 -41 -26 -61 -37 -21 -11 -38 -23 -38 -28 0 -4
-3 -7 -7 -5 -5 2 -20 -9 -35 -24 -15 -15 -21 -28 -15 -28 7 0 19 9 27 20 8 11
20 20 27 20 7 0 13 4 13 10 0 5 19 19 43 30 50 25 82 48 75 55 -3 3 -16 -3
-29 -13z"/>
<path d="M1322 2638 c-35 -27 -66 -47 -69 -45 -2 3 -16 -4 -29 -16 -24 -21
-26 -39 -2 -19 7 5 22 12 33 14 10 1 27 10 36 18 35 32 60 50 69 50 6 0 10 7
10 15 0 7 8 19 18 24 9 6 13 10 7 10 -5 0 -38 -23 -73 -51z"/>
<path d="M806 2672 c-3 -5 1 -9 9 -9 8 0 12 4 9 9 -3 4 -7 8 -9 8 -2 0 -6 -4
-9 -8z"/>
<path d="M1191 2661 c-8 -6 -9 -11 -3 -15 6 -3 14 -1 17 5 9 14 2 20 -14 10z"/>
<path d="M2250 2636 c0 -2 7 -9 15 -16 13 -11 14 -10 9 4 -5 14 -24 23 -24 12z"/>
<path d="M910 2595 c0 -8 2 -15 4 -15 2 0 6 7 10 15 3 8 1 15 -4 15 -6 0 -10
-7 -10 -15z"/>
<path d="M1186 2574 c-5 -14 -4 -15 9 -4 17 14 19 20 6 20 -5 0 -12 -7 -15
-16z"/>
<path d="M803 2555 c-3 -9 -3 -18 -1 -21 3 -3 8 4 11 16 6 23 -1 27 -10 5z"/>
<path d="M1160 2530 c-13 -8 -13 -10 2 -10 9 0 20 5 23 10 8 13 -5 13 -25 0z"/>
<path d="M645 2501 c-3 -5 -2 -12 3 -15 5 -3 9 1 9 9 0 17 -3 19 -12 6z"/>
<path d="M1237 2492 c-10 -10 -17 -23 -17 -28 1 -5 9 1 19 13 10 12 22 19 26
15 5 -4 5 -1 1 6 -9 16 -10 15 -29 -6z"/>
<path d="M2377 2490 c3 -11 7 -20 9 -20 2 0 4 9 4 20 0 11 -4 20 -9 20 -5 0
-7 -9 -4 -20z"/>
<path d="M1040 2490 c-9 -6 -10 -10 -3 -10 6 0 15 5 18 10 8 12 4 12 -15 0z"/>
<path d="M910 2480 c-8 -5 -11 -10 -6 -10 5 0 2 -8 -5 -17 -12 -14 -10 -14 14
1 15 10 27 22 27 27 0 12 -11 11 -30 -1z"/>
<path d="M1988 2469 c-26 -12 -49 -28 -53 -37 -5 -14 -4 -14 12 0 10 9 38 25
63 36 25 11 41 21 35 21 -5 0 -31 -9 -57 -20z"/>
<path d="M870 2469 c0 -5 -4 -8 -9 -4 -5 3 -12 1 -15 -4 -4 -5 2 -8 11 -7 15
3 33 26 19 26 -3 0 -6 -5 -6 -11z"/>
<path d="M965 2463 c-29 -15 -109 -93 -96 -93 4 0 22 16 41 35 20 21 42 34 53
33 13 -2 23 5 28 20 5 12 7 22 6 22 -1 -1 -15 -8 -32 -17z"/>
<path d="M1274 2445 c-10 -8 -14 -14 -9 -14 6 0 19 6 29 14 11 8 15 15 10 15
-6 0 -19 -7 -30 -15z"/>
<path d="M2385 2450 c-4 -6 -2 -17 4 -24 6 -7 7 -17 3 -21 -4 -5 -2 -5 4 -2 6
4 9 18 6 32 -5 28 -8 30 -17 15z"/>
<path d="M1031 2436 c-16 -22 -22 -41 -6 -21 9 11 20 20 25 20 4 0 11 3 14 6
3 3 -1 6 -9 6 -8 0 -19 -5 -24 -11z"/>
<path d="M1180 2425 c-5 -14 -14 -25 -20 -25 -6 0 -8 -5 -5 -10 4 -6 -1 -23
-10 -38 l-16 -27 20 24 c12 13 21 29 21 36 0 6 11 24 25 39 17 18 20 26 9 26
-8 0 -19 -11 -24 -25z"/>
<path d="M805 2430 c3 -5 8 -10 11 -10 2 0 4 5 4 10 0 6 -5 10 -11 10 -5 0 -7
-4 -4 -10z"/>
<path d="M2070 2419 c0 -5 5 -7 10 -4 6 3 10 8 10 11 0 2 -4 4 -10 4 -5 0 -10
-5 -10 -11z"/>
<path d="M2193 2415 c0 -8 4 -12 9 -9 5 3 6 10 3 15 -9 13 -12 11 -12 -6z"/>
<path d="M1840 2409 c0 -5 5 -7 10 -4 6 3 10 8 10 11 0 2 -4 4 -10 4 -5 0 -10
-5 -10 -11z"/>
<path d="M1895 2410 c-3 -5 -2 -10 4 -10 5 0 13 5 16 10 3 6 2 10 -4 10 -5 0
-13 -4 -16 -10z"/>
<path d="M649 2393 c-13 -16 -12 -17 4 -4 9 7 17 15 17 17 0 8 -8 3 -21 -13z"/>
<path d="M1193 2360 c-24 -26 -43 -51 -43 -56 0 -5 12 5 27 21 14 17 38 42 52
58 13 15 21 27 15 26 -5 -1 -28 -22 -51 -49z"/>
<path d="M2080 2395 c-11 -13 -10 -14 4 -9 9 3 16 10 16 15 0 13 -6 11 -20 -6z"/>
<path d="M2035 2390 c-3 -6 1 -7 9 -4 18 7 21 14 7 14 -6 0 -13 -4 -16 -10z"/>
<path d="M600 2375 c0 -8 2 -15 4 -15 2 0 6 7 10 15 3 8 1 15 -4 15 -6 0 -10
-7 -10 -15z"/>
<path d="M791 2374 c0 -11 3 -14 6 -6 3 7 2 16 -1 19 -3 4 -6 -2 -5 -13z"/>
<path d="M982 2378 c-9 -9 -7 -15 6 -25 9 -8 12 -12 5 -9 -6 4 -14 2 -18 -4
-3 -5 2 -10 12 -10 12 0 23 12 31 33 10 27 9 29 -2 15 -16 -22 -30 -23 -22 -3
7 18 4 19 -12 3z"/>
<path d="M2245 2380 c-3 -5 -1 -10 4 -10 6 0 11 5 11 10 0 6 -2 10 -4 10 -3 0
-8 -4 -11 -10z"/>
<path d="M2400 2360 c0 -16 4 -30 8 -30 5 0 7 14 4 30 -2 17 -6 30 -8 30 -2 0
-4 -13 -4 -30z"/>
<path d="M1356 2343 c-6 -14 -5 -15 5 -6 7 7 10 15 7 18 -3 3 -9 -2 -12 -12z"/>
<path d="M835 2339 c-4 -6 -5 -12 -2 -15 2 -3 7 2 10 11 7 17 1 20 -8 4z"/>
<path d="M867 2330 c-3 -11 0 -23 6 -27 7 -3 9 -3 5 2 -4 4 -3 14 3 21 6 7 6
15 1 18 -6 3 -12 -3 -15 -14z"/>
<path d="M1725 2340 c3 -5 8 -10 11 -10 2 0 4 5 4 10 0 6 -5 10 -11 10 -5 0
-7 -4 -4 -10z"/>
<path d="M936 2319 c-8 -12 -12 -28 -9 -35 3 -8 0 -14 -6 -14 -6 0 -11 -5 -11
-11 0 -6 -7 -17 -15 -26 -8 -8 -13 -18 -10 -23 3 -4 -2 -13 -10 -20 -8 -7 -15
-18 -15 -24 0 -6 -11 -28 -25 -48 -14 -20 -25 -45 -25 -55 0 -15 -2 -16 -11
-3 -9 13 -10 12 -5 -3 6 -19 -23 -89 -34 -82 -12 7 -31 -46 -24 -67 4 -15 19
9 57 94 28 62 57 118 63 125 7 7 22 32 34 55 39 76 47 88 66 104 11 8 15 14 9
13 -22 -3 -25 2 -15 21 14 26 5 26 -14 -1z"/>
<path d="M540 2305 c-13 -14 -20 -25 -15 -25 4 0 18 11 31 25 13 14 20 25 15
25 -4 0 -18 -11 -31 -25z"/>
<path d="M776 2298 c-23 -32 -10 -35 18 -5 17 18 20 27 11 27 -8 0 -21 -10
-29 -22z"/>
<path d="M1745 2310 c-3 -6 1 -7 9 -4 18 7 21 14 7 14 -6 0 -13 -4 -16 -10z"/>
<path d="M2412 2295 c0 -16 2 -22 5 -12 2 9 2 23 0 30 -3 6 -5 -1 -5 -18z"/>
<path d="M1082 2268 c-7 -7 -12 -16 -12 -21 0 -5 7 -1 16 8 9 9 14 18 12 20
-2 3 -10 -1 -16 -7z"/>
<path d="M489 2248 c-18 -19 -21 -19 -16 -5 4 11 3 16 -4 12 -5 -4 -8 -12 -6
-18 2 -6 -2 -22 -9 -35 -7 -14 -10 -30 -8 -37 3 -7 1 -16 -5 -20 -17 -10 -13
-52 5 -59 14 -5 13 -11 -7 -43 -13 -21 -43 -63 -68 -93 -24 -30 -58 -84 -74
-120 -16 -36 -34 -68 -39 -71 -6 -4 -8 -11 -5 -16 4 -6 3 -24 -2 -40 -5 -17
-5 -36 0 -44 5 -8 9 -12 9 -9 1 3 3 24 5 47 4 50 50 151 79 176 19 16 19 17 2
10 -13 -4 -17 -3 -12 5 4 7 17 12 29 13 12 0 16 3 9 6 -9 3 -7 10 9 24 12 10
19 19 16 19 -3 0 11 18 33 40 29 30 37 44 32 62 -5 20 -3 21 10 11 8 -7 18 -9
23 -5 4 4 -1 -6 -11 -23 -10 -16 -14 -26 -7 -22 6 4 14 3 18 -3 7 -11 25 -4
25 10 0 5 -7 7 -16 3 -15 -5 -15 -3 0 24 8 17 13 33 11 37 -3 3 -2 4 2 1 8 -7
53 35 53 49 0 6 -7 3 -14 -7 -12 -16 -15 -16 -23 -4 -7 13 -10 13 -23 -1 -13
-14 -12 -15 3 -9 9 3 17 2 17 -3 0 -6 -5 -10 -11 -10 -6 0 -17 -7 -26 -15 -16
-17 -28 -13 -43 14 -7 14 -4 24 11 40 11 11 15 21 9 21 -19 0 -10 32 21 71 34
43 33 52 -2 17z"/>
<path d="M1315 2246 c-23 -25 -26 -40 -4 -19 12 12 21 24 18 27 -2 2 -9 -1
-14 -8z"/>
<path d="M2413 2225 c0 -22 2 -30 4 -17 2 12 2 30 0 40 -3 9 -5 -1 -4 -23z"/>
<path d="M610 2240 c0 -5 7 -7 15 -4 8 4 15 8 15 10 0 2 -7 4 -15 4 -8 0 -15
-4 -15 -10z"/>
<path d="M994 2214 c-33 -30 -34 -32 -7 -13 18 13 35 20 38 18 7 -7 -18 -59
-28 -59 -5 0 -6 -4 -2 -9 3 -6 -17 -44 -45 -85 -27 -41 -50 -78 -50 -82 0 -4
-8 -17 -17 -28 -16 -19 -16 -19 -1 -7 9 7 21 10 27 7 5 -3 12 7 16 23 3 16 13
35 21 42 19 15 18 10 -6 -44 -13 -28 -26 -44 -33 -41 -11 4 -36 -22 -62 -65
-5 -10 -4 -12 3 -7 7 4 12 1 12 -8 0 -10 6 -13 16 -9 11 4 12 8 4 13 -7 4 -10
16 -7 26 4 17 6 17 12 -3 4 -13 12 -20 19 -17 6 3 1 -3 -10 -13 -17 -15 -20
-23 -12 -38 8 -13 7 -16 -1 -11 -6 4 -11 2 -11 -4 0 -6 -4 -9 -8 -6 -5 3 -8
-12 -7 -32 1 -20 -2 -48 -7 -62 -5 -15 -6 -21 0 -15 13 15 63 148 122 325 29
85 57 161 63 168 12 15 18 72 7 72 -4 0 -24 -16 -46 -36z m-79 -295 c11 -17
-1 -21 -15 -4 -8 9 -8 15 -2 15 6 0 14 -5 17 -11z"/>
<path d="M650 2219 c0 -5 -4 -7 -10 -4 -5 3 -10 1 -10 -4 0 -6 -7 -11 -15 -11
-9 0 -18 -7 -22 -16 -3 -8 -12 -13 -19 -10 -8 3 -18 -4 -24 -14 -9 -17 -8 -20
8 -17 23 3 123 86 105 87 -7 0 -13 -5 -13 -11z"/>
<path d="M751 2200 c-16 -18 -32 -42 -34 -54 -5 -20 -5 -20 6 -2 7 11 23 31
36 45 43 45 35 5 -14 -66 -40 -58 -42 -62 -11 -28 19 22 44 56 55 76 18 32 19
38 6 49 -12 10 -20 6 -44 -20z"/>
<path d="M1580 2203 c-24 -25 -24 -26 -2 -14 12 6 22 17 22 22 0 6 7 8 16 5 8
-3 12 -2 9 4 -9 15 -18 12 -45 -17z"/>
<path d="M2166 2213 c-4 -5 -11 -8 -14 -9 -4 0 -20 -6 -35 -12 -16 -7 -34 -12
-42 -12 -8 0 -17 -5 -20 -10 -4 -6 -12 -10 -18 -9 -27 3 -36 -2 -39 -23 -2
-13 -12 -22 -26 -25 -41 -6 -169 -63 -188 -84 -11 -12 -25 -17 -38 -13 -15 4
-17 3 -7 -4 11 -8 9 -11 -9 -17 -13 -4 -47 -23 -77 -42 -29 -18 -61 -37 -71
-40 -9 -4 -37 -21 -62 -39 -25 -18 -72 -47 -105 -64 -123 -67 -315 -184 -315
-192 0 -5 -4 -6 -10 -3 -5 3 -20 1 -32 -6 l-23 -12 20 23 c20 23 20 23 0 13
-11 -6 -26 -8 -32 -6 -7 3 -16 -2 -19 -11 -6 -14 -34 -23 -34 -11 0 3 17 28
38 56 20 28 36 55 35 60 -2 5 2 9 9 9 13 0 79 72 72 79 -7 7 -145 -139 -140
-148 3 -4 -6 -19 -20 -34 -22 -25 -23 -32 -1 -28 4 0 7 -3 7 -8 0 -15 -34 -71
-43 -71 -5 0 -6 -4 -3 -9 3 -5 -1 -14 -8 -20 -11 -9 -16 -9 -22 0 -4 7 -2 15
4 17 17 5 15 19 -4 26 -8 3 -12 2 -9 -4 3 -5 0 -20 -7 -32 -7 -13 -11 -26 -10
-30 1 -5 -3 -8 -8 -8 -6 0 -10 -4 -10 -10 0 -5 7 -7 15 -4 8 4 15 1 15 -5 0
-6 -5 -11 -11 -11 -5 0 -8 -4 -5 -9 3 -4 -1 -17 -9 -27 -16 -21 -19 -34 -7
-34 4 0 14 15 20 34 7 19 20 40 29 48 14 11 16 10 11 -12 -4 -14 -2 -34 2 -45
6 -13 8 -4 6 30 -3 44 2 58 36 112 25 39 45 60 53 57 7 -3 23 0 35 6 20 11 27
7 67 -32 24 -23 62 -67 85 -95 36 -47 40 -57 35 -95 -2 -24 -12 -63 -22 -88
-11 -31 -17 -80 -19 -157 -1 -70 -7 -117 -15 -126 -8 -10 -9 -17 -1 -22 5 -3
10 1 10 9 0 9 6 13 13 10 10 -3 13 8 14 43 0 54 12 105 22 99 4 -3 7 4 7 15 0
28 -13 23 -25 -8 -8 -23 -9 -16 -6 35 3 35 10 71 16 80 10 16 10 16 5 0 -3
-10 -1 -18 4 -18 14 0 12 24 -2 38 -8 8 -8 12 -1 12 6 0 16 21 22 46 10 41 9
49 -11 87 -13 23 -28 47 -34 52 -41 38 -106 127 -98 135 18 18 177 100 194
100 5 0 10 4 10 10 0 5 3 9 8 9 20 -4 73 15 69 25 -4 11 7 14 54 17 8 0 21 10
28 21 9 15 10 18 0 13 -8 -5 -10 -4 -5 3 4 7 22 12 39 13 18 0 26 3 19 6 -10
4 -10 8 -1 19 13 16 33 19 24 4 -12 -20 8 -9 41 23 19 17 39 32 44 32 4 0 20
10 33 22 14 12 27 19 30 17 2 -2 20 7 40 21 21 13 37 20 37 15 0 -6 14 2 31
17 17 16 63 41 102 56 63 24 83 28 159 25 76 -3 90 -6 113 -28 31 -29 44 -57
52 -115 3 -22 7 -42 9 -44 2 -2 -3 -16 -11 -30 -9 -18 -10 -32 -4 -42 8 -12
10 -12 8 1 -2 25 13 60 23 54 5 -3 8 -18 7 -32 -1 -15 1 -34 4 -42 3 -8 5 -28
4 -45 -2 -22 -7 -30 -19 -29 -10 1 -15 -3 -12 -8 3 -5 12 -7 20 -4 14 5 18 -8
15 -51 -1 -11 3 -24 8 -28 15 -9 14 -28 -1 -19 -10 6 -10 4 0 -7 17 -19 15
-32 -5 -25 -10 4 -14 4 -10 0 11 -11 -23 -44 -47 -45 -18 0 -18 -1 -4 -7 13
-5 15 -11 8 -22 -9 -13 -11 -13 -20 0 -14 22 -13 -22 2 -71 13 -44 28 -51 28
-14 0 33 38 112 62 129 18 13 18 17 3 116 -8 57 -15 124 -15 149 0 25 -7 55
-15 65 -8 10 -12 23 -9 27 3 5 0 9 -6 9 -8 0 -8 6 0 20 6 11 7 20 2 20 -9 0
-52 97 -52 117 0 7 -5 15 -12 19 -8 5 -9 2 -5 -9 9 -24 0 -21 -14 4 -7 13 -7
19 -1 15 6 -3 13 -2 17 4 3 5 3 10 -2 10 -4 0 -14 12 -20 27 -11 22 -10 29 4
45 15 17 15 36 -1 21z m-26 -79 c13 -33 13 -37 -2 -28 -6 4 -38 7 -70 6 -47
-1 -58 2 -58 15 0 11 7 14 24 11 13 -3 35 1 47 8 35 20 48 17 59 -12z m-700
-339 c-7 -8 -20 -15 -29 -15 -11 1 -8 5 9 15 32 18 35 18 20 0z m-415 -195 c3
-5 1 -10 -4 -10 -6 0 -11 5 -11 10 0 6 2 10 4 10 3 0 8 -4 11 -10z m-125 -130
c0 -5 -4 -10 -9 -10 -6 0 -13 5 -16 10 -3 6 1 10 9 10 9 0 16 -4 16 -10z"/>
<path d="M1940 2185 c-11 -13 -10 -14 4 -9 9 3 16 10 16 15 0 13 -6 11 -20 -6z"/>
<path d="M806 2173 c-6 -14 -5 -15 5 -6 7 7 10 15 7 18 -3 3 -9 -2 -12 -12z"/>
<path d="M2230 2171 c0 -6 4 -13 10 -16 6 -3 7 1 4 9 -7 18 -14 21 -14 7z"/>
<path d="M2413 2140 c0 -25 2 -35 4 -22 2 12 2 32 0 45 -2 12 -4 2 -4 -23z"/>
<path d="M939 2153 c-13 -16 -12 -17 4 -4 9 7 17 15 17 17 0 8 -8 3 -21 -13z"/>
<path d="M1647 2155 c-8 -8 -17 -11 -21 -8 -3 4 -6 0 -6 -8 0 -12 -2 -11 -11
1 -9 13 -10 13 -6 -1 6 -18 -38 -63 -53 -54 -9 6 -40 -21 -40 -36 0 -16 37 8
154 103 11 10 16 18 9 18 -6 0 -18 -7 -26 -15z"/>
<path d="M633 2138 c-27 -30 -155 -225 -171 -260 -7 -16 -8 -28 -2 -28 5 0 13
12 16 27 4 15 21 46 38 69 17 23 47 65 66 92 19 28 41 53 48 56 22 9 34 -4 20
-21 -18 -22 -19 -49 -2 -63 12 -11 17 -10 29 6 22 30 17 42 -6 14 l-20 -25 5
35 c7 44 10 52 20 68 11 18 -1 29 -16 14 -7 -7 -16 -12 -22 -12 -5 0 0 9 12
20 12 12 22 23 22 25 0 12 -18 3 -37 -17z"/>
<path d="M1359 2146 c4 -6 11 -18 14 -26 3 -8 5 -3 4 11 -1 14 -7 26 -14 26
-8 0 -9 -5 -4 -11z"/>
<path d="M781 2124 c0 -11 3 -14 6 -6 3 7 2 16 -1 19 -3 4 -6 -2 -5 -13z"/>
<path d="M1546 2131 c-4 -5 3 -7 14 -4 23 6 26 13 6 13 -8 0 -17 -4 -20 -9z"/>
<path d="M1950 2129 c0 -5 5 -7 10 -4 6 3 10 8 10 11 0 2 -4 4 -10 4 -5 0 -10
-5 -10 -11z"/>
<path d="M2228 2133 c7 -3 16 -2 19 1 4 3 -2 6 -13 5 -11 0 -14 -3 -6 -6z"/>
<path d="M1740 2109 c0 -5 5 -7 10 -4 6 3 10 8 10 11 0 2 -4 4 -10 4 -5 0 -10
-5 -10 -11z"/>
<path d="M1484 2100 c-12 -5 -25 -13 -28 -19 -4 -5 7 -3 24 5 16 9 30 17 30
20 0 5 0 5 -26 -6z"/>
<path d="M1321 2084 c0 -11 3 -14 6 -6 3 7 2 16 -1 19 -3 4 -6 -2 -5 -13z"/>
<path d="M1115 2081 c-3 -5 0 -13 6 -17 7 -4 9 -3 5 4 -3 5 0 13 6 15 9 4 10
6 1 6 -6 1 -14 -3 -18 -8z"/>
<path d="M2400 2073 c0 -16 -2 -16 -11 -3 -9 12 -10 12 -7 1 7 -24 28 -25 28
-2 0 12 -2 21 -5 21 -3 0 -5 -8 -5 -17z"/>
<path d="M2240 2068 c0 -8 6 -23 14 -33 13 -18 14 -18 9 8 -6 29 -23 48 -23
25z"/>
<path d="M2330 2070 c-9 -6 -10 -10 -3 -10 6 0 15 5 18 10 8 12 4 12 -15 0z"/>
<path d="M1730 2060 c-8 -5 -10 -10 -5 -10 6 0 17 5 25 10 8 5 11 10 5 10 -5
0 -17 -5 -25 -10z"/>
<path d="M2292 2043 c-11 -26 -11 -27 3 -9 10 13 15 15 15 6 0 -7 3 -11 6 -7
3 3 2 13 -3 22 -8 13 -11 12 -21 -12z"/>
<path d="M708 2030 c-7 -14 -21 -38 -31 -53 -11 -16 -17 -31 -14 -34 3 -3 14
8 24 24 10 16 24 28 31 26 6 -3 12 3 12 13 0 10 7 25 15 34 13 14 12 16 -5 16
-10 0 -25 -12 -32 -26z m9 -22 c-3 -8 -6 -5 -6 6 -1 11 2 17 5 13 3 -3 4 -12
1 -19z"/>
<path d="M1225 2050 c-3 -5 -1 -10 4 -10 6 0 11 5 11 10 0 6 -2 10 -4 10 -3 0
-8 -4 -11 -10z"/>
<path d="M1301 2038 c-14 -23 -14 -23 8 -4 22 20 25 26 13 26 -4 0 -13 -10
-21 -22z"/>
<path d="M1439 2023 c-44 -48 -82 -78 -92 -75 -5 1 -6 -2 -2 -8 3 -5 1 -10 -6
-10 -6 0 -27 -18 -46 -40 -19 -22 -40 -37 -46 -33 -5 3 -7 2 -4 -4 4 -5 -7
-23 -24 -39 -17 -16 -40 -42 -51 -57 l-21 -29 22 13 c11 8 21 17 21 22 0 4 4
5 10 2 6 -3 7 1 4 9 -3 9 -2 16 3 16 5 0 44 34 87 75 44 43 82 73 88 69 6 -4
8 -3 4 4 -3 6 13 25 39 43 50 36 84 79 62 79 -7 0 -28 -17 -48 -37z"/>
<path d="M1628 2032 c-16 -9 -28 -22 -28 -29 0 -13 -59 -49 -72 -45 -5 1 -8
-3 -8 -8 0 -6 -6 -10 -14 -8 -7 2 -49 -19 -92 -47 -86 -55 -127 -79 -161 -97
-13 -6 -23 -15 -23 -20 0 -12 -42 -68 -51 -68 -7 0 -76 -44 -88 -56 -3 -3 9 1
26 8 17 8 90 56 162 108 72 52 159 112 193 132 124 72 168 103 168 118 0 13 1
13 10 0 8 -12 10 -12 10 5 0 14 3 16 8 8 7 -10 12 -10 26 0 16 11 15 13 -11
15 -15 1 -40 -6 -55 -16z"/>
<path d="M1369 2023 c-13 -16 -12 -17 4 -4 9 7 17 15 17 17 0 8 -8 3 -21 -13z"/>
<path d="M2370 2017 c-17 -24 -31 -87 -20 -87 4 0 13 19 20 43 7 23 17 45 22
48 6 4 6 9 1 12 -5 3 -16 -4 -23 -16z"/>
<path d="M1235 2010 c-18 -20 -18 -21 1 -14 17 7 18 6 4 -11 -34 -44 -62 -66
-75 -61 -19 7 -30 -13 -16 -27 8 -8 11 -8 11 1 0 7 7 12 15 12 8 0 15 -7 15
-15 0 -8 -4 -15 -8 -15 -5 0 -9 -7 -9 -15 0 -12 6 -10 24 7 24 22 32 45 11 32
-12 -8 -7 4 23 47 24 34 41 79 30 79 -4 0 -16 -9 -26 -20z"/>
<path d="M2793 2005 c0 -8 4 -12 9 -9 5 3 6 10 3 15 -9 13 -12 11 -12 -6z"/>
<path d="M602 2001 c-11 -7 -10 -10 3 -15 23 -9 25 -8 25 9 0 17 -9 19 -28 6z"/>
<path d="M1515 1980 c-3 -6 1 -7 9 -4 18 7 21 14 7 14 -6 0 -13 -4 -16 -10z"/>
<path d="M555 1969 c-4 -6 -4 -13 -1 -16 3 -4 6 -1 6 6 0 7 5 9 10 6 6 -3 10
-1 10 4 0 14 -17 14 -25 0z"/>
<path d="M419 1953 c-13 -17 -13 -17 6 -3 11 8 22 16 24 17 2 2 0 3 -6 3 -6 0
-17 -8 -24 -17z"/>
<path d="M1298 1959 c-2 -5 -39 -46 -83 -92 -44 -45 -98 -107 -120 -136 -22
-29 -49 -62 -59 -72 -11 -11 -15 -19 -10 -19 12 0 64 55 64 68 0 4 9 13 20 20
11 7 20 17 20 23 0 17 122 139 132 133 5 -3 7 -1 6 5 -2 5 11 20 27 33 17 13
31 28 32 34 2 12 -25 15 -29 3z"/>
<path d="M1861 1954 c0 -11 3 -14 6 -6 3 7 2 16 -1 19 -3 4 -6 -2 -5 -13z"/>
<path d="M2309 1951 c-13 -11 -22 -21 -19 -24 3 -2 16 6 30 19 29 29 22 32
-11 5z"/>
<path d="M580 1926 c0 -13 -3 -33 -6 -43 -5 -12 -4 -15 3 -8 14 14 25 75 13
75 -6 0 -10 -11 -10 -24z"/>
<path d="M2720 1936 c0 -2 8 -10 18 -17 15 -13 16 -12 3 4 -13 16 -21 21 -21
13z"/>
<path d="M701 1895 c-7 -20 -10 -39 -7 -42 3 -4 6 1 6 10 0 10 4 17 8 17 9 0
0 -89 -11 -107 -4 -6 -3 -14 2 -17 5 -4 12 4 14 16 4 20 4 19 6 -5 0 -16 5
-26 11 -22 14 9 13 -1 -5 -35 -9 -18 -11 -31 -5 -35 5 -3 12 6 16 21 4 15 24
42 44 61 21 18 41 45 44 59 4 13 11 22 16 19 6 -4 8 -10 6 -14 -3 -4 1 -8 9
-8 12 0 12 4 -2 20 -16 17 -19 18 -28 2 -5 -9 -22 -31 -37 -48 -15 -18 -28
-36 -28 -41 0 -5 -6 -3 -14 3 -10 8 -15 33 -15 74 0 34 -4 72 -8 85 -8 22 -9
21 -22 -13z"/>
<path d="M503 1884 c-25 -39 -40 -79 -25 -70 10 6 55 96 50 101 -2 1 -13 -12
-25 -31z"/>
<path d="M643 1889 c-7 -18 -10 -36 -6 -42 3 -6 1 -7 -5 -3 -7 4 -13 -7 -18
-31 -3 -21 -10 -54 -15 -73 -7 -27 -8 -22 -4 27 3 41 1 65 -7 69 -7 5 -4 10
10 15 12 5 22 14 22 21 0 9 -3 9 -8 2 -4 -6 -15 -13 -24 -17 -14 -5 -18 -18
-18 -51 0 -24 -3 -52 -7 -62 -4 -12 -3 -15 5 -10 7 4 12 2 12 -3 0 -6 -6 -11
-12 -11 -9 0 -9 -3 1 -9 8 -5 14 -23 13 -41 -1 -35 4 -37 10 -5 1 11 6 22 10
25 4 4 17 44 28 90 11 47 24 97 29 113 13 38 -2 34 -16 -4z"/>
<path d="M1380 1909 c0 -5 5 -7 10 -4 6 3 10 8 10 11 0 2 -4 4 -10 4 -5 0 -10
-5 -10 -11z"/>
<path d="M1991 1897 c-13 -21 -12 -21 5 -5 10 10 16 20 13 22 -3 3 -11 -5 -18
-17z"/>
<path d="M1036 1864 c-3 -8 0 -11 10 -7 8 3 22 -1 31 -8 15 -13 15 -12 3 7
-14 23 -37 27 -44 8z"/>
<path d="M1128 1855 c-6 -30 -2 -32 12 -6 6 11 6 22 1 25 -5 3 -11 -5 -13 -19z"/>
<path d="M1945 1860 c3 -5 8 -10 11 -10 2 0 4 5 4 10 0 6 -5 10 -11 10 -5 0
-7 -4 -4 -10z"/>
<path d="M775 1829 c-4 -6 -5 -12 -2 -15 2 -3 7 2 10 11 7 17 1 20 -8 4z"/>
<path d="M446 1822 c-7 -11 4 -52 14 -52 4 0 10 7 14 15 3 8 0 14 -7 12 -7 -1
-11 6 -11 16 2 18 -2 22 -10 9z"/>
<path d="M1014 1797 c-17 -17 -56 -54 -87 -81 -31 -27 -64 -63 -73 -80 -24
-48 -35 -78 -25 -72 4 3 14 19 21 36 7 16 16 30 21 30 5 0 9 7 9 16 0 10 6 14
15 10 8 -3 14 -2 12 2 -3 11 29 52 36 45 4 -3 7 0 7 8 0 12 35 42 50 43 12 0
27 22 22 30 -3 5 2 7 10 3 9 -3 24 1 35 9 17 14 17 14 -4 5 -27 -14 -41 3 -16
18 10 6 14 11 8 11 -5 0 -24 -15 -41 -33z"/>
<path d="M1610 1811 c0 -6 4 -13 10 -16 6 -3 7 1 4 9 -7 18 -14 21 -14 7z"/>
<path d="M1720 1811 c0 -5 5 -13 10 -16 6 -3 10 -2 10 4 0 5 -4 13 -10 16 -5
3 -10 2 -10 -4z"/>
<path d="M2134 1808 c-3 -4 2 -8 10 -8 8 0 17 4 20 8 3 5 -2 9 -10 9 -8 0 -17
-4 -20 -9z"/>
<path d="M660 1799 c0 -5 5 -7 10 -4 6 3 10 8 10 11 0 2 -4 4 -10 4 -5 0 -10
-5 -10 -11z"/>
<path d="M960 1790 c-8 -5 -12 -12 -9 -15 4 -3 12 1 19 10 14 17 11 19 -10 5z"/>
<path d="M425 1780 c-3 -5 -1 -10 4 -10 6 0 11 5 11 10 0 6 -2 10 -4 10 -3 0
-8 -4 -11 -10z"/>
<path d="M2190 1781 c0 -6 4 -13 10 -16 6 -3 7 1 4 9 -7 18 -14 21 -14 7z"/>
<path d="M525 1770 c-4 -6 3 -10 14 -10 25 0 27 6 6 13 -8 4 -17 2 -20 -3z"/>
<path d="M824 1753 c-4 -16 -10 -32 -14 -38 -3 -5 -7 -25 -8 -43 -2 -19 -9
-50 -17 -69 -17 -40 -19 -73 -6 -73 5 0 8 8 7 17 -2 9 10 51 26 92 29 77 41
141 26 141 -4 0 -11 -12 -14 -27z"/>
<path d="M1500 1764 c0 -8 5 -12 10 -9 6 4 8 11 5 16 -9 14 -15 11 -15 -7z"/>
<path d="M2226 1771 c-3 -4 4 -17 17 -27 22 -19 22 -19 4 2 -9 11 -14 24 -10
27 3 4 4 7 0 7 -3 0 -8 -4 -11 -9z"/>
<path d="M421 1742 c-11 -21 3 -42 26 -42 18 0 16 17 -2 24 -8 3 -15 10 -15
16 0 6 4 9 9 5 5 -3 12 -1 16 5 3 5 -1 10 -9 10 -8 0 -20 -8 -25 -18z"/>
<path d="M1442 1741 c-11 -7 -11 -9 2 -14 10 -4 16 -1 16 8 0 17 -1 17 -18 6z"/>
<path d="M300 1736 c0 -2 7 -7 16 -10 8 -3 12 -2 9 4 -6 10 -25 14 -25 6z"/>
<path d="M1810 1728 c0 -4 4 -8 9 -8 6 0 12 4 15 8 3 5 -1 9 -9 9 -8 0 -15 -4
-15 -9z"/>
<path d="M1778 1723 c7 -3 16 -2 19 1 4 3 -2 6 -13 5 -11 0 -14 -3 -6 -6z"/>
<path d="M2200 1721 c0 -6 4 -13 10 -16 6 -3 7 1 4 9 -7 18 -14 21 -14 7z"/>
<path d="M1860 1709 c0 -6 -9 -9 -20 -6 -10 3 -24 -1 -31 -9 -6 -8 -18 -14
-25 -14 -15 0 -19 -16 -5 -24 4 -3 23 -7 40 -8 18 -1 35 -6 37 -10 3 -4 11 -8
18 -8 15 0 14 36 -1 51 -6 6 -9 18 -6 25 3 8 2 14 -1 14 -3 0 -6 -5 -6 -11z
m9 -38 c8 -5 9 -11 3 -15 -6 -3 -13 -2 -17 4 -4 6 -11 7 -17 4 -7 -4 -8 -2 -4
4 8 14 16 15 35 3z"/>
<path d="M1900 1710 c0 -5 7 -10 16 -10 8 0 20 -14 26 -31 8 -23 13 -27 19
-17 13 20 11 -29 -2 -54 -8 -14 -8 -18 0 -14 11 7 65 -23 56 -32 -2 -3 0 -11
6 -18 7 -8 7 -14 -1 -19 -6 -3 -8 -11 -5 -16 4 -5 1 -9 -4 -9 -6 0 -11 7 -11
15 0 16 -39 36 -54 28 -4 -3 -12 1 -17 8 -5 8 -9 9 -9 3 0 -15 -116 -10 -135
6 -9 8 -20 8 -32 2 -19 -10 -24 -12 -45 -12 -9 0 -8 -3 2 -10 10 -6 22 -5 36
5 19 12 24 12 40 0 11 -8 29 -15 41 -15 12 0 23 -5 25 -11 2 -7 11 -7 29 1 19
9 36 9 67 0 52 -14 59 -42 8 -30 -37 8 -103 7 -112 -3 -12 -11 8 -28 27 -22
22 7 59 -2 59 -15 0 -17 -40 -21 -62 -6 -25 18 -48 21 -48 7 0 -10 61 -33 92
-36 21 -2 58 -42 58 -62 0 -7 4 -13 9 -13 15 0 3 51 -16 65 -14 11 -15 16 -6
26 10 10 17 9 34 -7 22 -19 22 -19 14 4 -6 22 -5 23 17 10 12 -7 30 -18 38
-25 18 -14 40 -1 60 37 7 14 9 22 5 18 -4 -4 -14 0 -22 10 -13 15 -13 15 -4
-4 16 -32 -8 -61 -38 -45 -12 7 -19 17 -15 23 5 7 2 9 -8 5 -11 -4 -18 1 -21
13 -3 13 1 21 14 25 10 4 19 10 19 15 0 5 -8 7 -17 4 -17 -5 -17 -5 -1 8 15
13 15 17 1 46 -8 17 -24 34 -34 37 -11 4 -19 16 -19 30 0 19 5 22 28 20 16 -1
34 -5 41 -9 7 -5 15 -5 19 -1 3 3 0 10 -7 14 -11 7 -11 9 0 13 8 3 5 7 -9 10
-14 4 -20 2 -15 -4 8 -14 -66 -3 -80 11 -7 7 -1 9 19 5 20 -3 25 -2 15 5 -8 5
-22 8 -32 6 -10 -2 -20 3 -23 11 -6 16 -36 19 -36 4z"/>
<path d="M685 1700 c-3 -5 -1 -10 4 -10 6 0 11 5 11 10 0 6 -2 10 -4 10 -3 0
-8 -4 -11 -10z"/>
<path d="M1435 1700 c3 -5 10 -10 16 -10 5 0 9 5 9 10 0 6 -7 10 -16 10 -8 0
-12 -4 -9 -10z"/>
<path d="M420 1670 c0 -17 3 -29 8 -29 20 3 33 -2 27 -11 -4 -6 -11 -7 -17 -4
-6 4 -8 2 -5 -4 11 -17 -3 -41 -21 -36 -14 4 -13 3 1 -6 10 -7 19 -10 20 -8 1
1 10 18 20 36 16 32 15 58 -3 47 -5 -3 -12 0 -16 6 -3 6 -1 15 6 19 8 5 7 9
-4 13 -12 5 -16 0 -16 -23z"/>
<path d="M1555 1690 c-3 -5 -1 -10 6 -10 8 0 8 -4 -1 -15 -9 -10 -9 -15 -1
-15 10 0 13 7 10 26 0 4 5 11 13 15 10 7 9 9 -4 9 -9 0 -20 -4 -23 -10z"/>
<path d="M51 1674 c0 -11 3 -14 6 -6 3 7 2 16 -1 19 -3 4 -6 -2 -5 -13z"/>
<path d="M1900 1675 c-4 -32 0 -45 20 -65 19 -19 28 -16 24 8 -1 6 -2 19 -3
27 0 8 -6 15 -12 15 -6 0 -9 -7 -5 -15 3 -8 1 -15 -4 -15 -5 0 -11 15 -13 33
-2 18 -5 24 -7 12z"/>
<path d="M2220 1681 c0 -6 4 -13 10 -16 6 -3 7 1 4 9 -7 18 -14 21 -14 7z"/>
<path d="M374 1640 c-4 -25 -15 -47 -28 -55 -13 -10 -15 -15 -6 -15 11 0 11
-3 2 -12 -17 -17 -15 -29 3 -22 8 4 15 12 15 19 0 8 7 21 16 29 8 9 13 16 11
16 -2 0 -1 18 3 40 4 22 3 40 -1 40 -5 0 -12 -18 -15 -40z"/>
<path d="M535 1672 c3 -3 -1 -12 -8 -20 -11 -13 -9 -14 11 -1 26 16 28 26 7
26 -8 0 -13 -3 -10 -5z"/>
<path d="M1436 1672 c-4 -7 -5 -16 -2 -21 4 -5 1 -11 -6 -13 -8 -3 -8 -9 1
-24 7 -12 11 -14 10 -4 -1 8 1 23 5 32 10 22 3 48 -8 30z"/>
<path d="M1491 1671 l-24 -6 27 -12 c23 -11 26 -11 26 7 0 11 -1 20 -2 19 -2
-1 -14 -4 -27 -8z"/>
<path d="M1740 1670 c-8 -5 -22 -7 -30 -5 -11 3 -16 -2 -17 -16 -2 -18 0 -19
14 -7 15 11 16 11 10 -4 -4 -12 -1 -18 9 -18 8 0 12 5 9 11 -4 5 1 19 11 30
19 21 17 24 -6 9z"/>
<path d="M740 1659 c0 -5 5 -7 10 -4 6 3 10 8 10 11 0 2 -4 4 -10 4 -5 0 -10
-5 -10 -11z"/>
<path d="M1346 1643 c-6 -14 -5 -15 5 -6 7 7 10 15 7 18 -3 3 -9 -2 -12 -12z"/>
<path d="M1616 1644 c-3 -8 -11 -12 -17 -8 -13 8 1 -21 23 -47 12 -14 16 -13
38 9 14 14 20 22 13 19 -6 -4 -14 -1 -16 5 -3 8 -6 6 -6 -4 -1 -20 -26 -24
-37 -6 -4 6 0 16 9 23 19 13 22 25 8 25 -5 0 -12 -7 -15 -16z"/>
<path d="M2100 1656 c0 -2 7 -7 16 -10 8 -3 12 -2 9 4 -6 10 -25 14 -25 6z"/>
<path d="M677 1628 c-8 -28 0 -37 10 -12 3 10 11 22 17 26 7 5 5 8 -5 8 -9 0
-19 -10 -22 -22z"/>
<path d="M2080 1633 c0 -18 6 -23 24 -23 13 0 27 -8 30 -17 6 -15 8 -15 23 0
15 15 17 15 29 -1 8 -10 14 -12 14 -5 0 6 -5 15 -10 18 -6 4 -7 12 -3 18 4 7
0 6 -10 -2 -15 -12 -17 -11 -17 3 0 12 -7 14 -31 9 -21 -4 -34 -1 -40 8 -6 11
-9 8 -9 -8z m74 -18 c3 -8 1 -15 -4 -15 -6 0 -10 7 -10 15 0 8 2 15 4 15 2 0
6 -7 10 -15z"/>
<path d="M256 1623 c6 -18 93 -203 119 -256 8 -15 10 -25 4 -21 -6 3 -3 -6 7
-21 l18 -27 8 22 c5 13 4 27 -1 34 -10 12 -61 107 -61 113 0 2 5 1 11 -3 7 -4
10 -1 7 7 -3 8 2 19 10 25 13 9 11 12 -10 16 -22 4 -24 2 -21 -21 4 -25 4 -25
-11 -7 -9 11 -16 30 -16 42 0 13 -6 27 -13 31 -7 4 -21 25 -31 46 -17 38 -30
51 -20 20z"/>
<path d="M1540 1631 c0 -6 4 -12 8 -15 5 -3 9 1 9 9 0 8 -4 15 -9 15 -4 0 -8
-4 -8 -9z"/>
<path d="M583 1611 c0 -11 5 -18 9 -15 4 3 5 11 1 19 -7 21 -12 19 -10 -4z"/>
<path d="M467 1613 c-10 -10 -8 -53 2 -53 5 0 8 14 7 30 0 17 -1 30 -2 30 0 0
-4 -3 -7 -7z"/>
<path d="M1836 1606 c8 -21 34 -28 34 -10 0 8 -4 12 -10 9 -5 -3 -10 -1 -10 4
0 6 -4 11 -10 11 -5 0 -7 -6 -4 -14z"/>
<path d="M620 1600 c-13 -8 -12 -10 3 -10 9 0 17 5 17 10 0 12 -1 12 -20 0z"/>
<path d="M1290 1594 c0 -8 5 -12 10 -9 6 4 8 11 5 16 -9 14 -15 11 -15 -7z"/>
<path d="M1510 1595 c0 -8 -4 -15 -10 -15 -5 0 -10 -5 -10 -11 0 -14 18 -2 30
22 7 13 7 19 0 19 -5 0 -10 -7 -10 -15z"/>
<path d="M1700 1588 c0 -6 3 -8 7 -5 3 4 13 1 22 -6 14 -11 14 -10 2 6 -15 20
-31 22 -31 5z"/>
<path d="M240 1571 c0 -11 4 -22 9 -25 4 -3 6 6 3 19 -5 30 -12 33 -12 6z"/>
<path d="M485 1563 c-18 -26 -17 -27 3 -41 12 -8 22 -25 22 -38 0 -13 4 -24 8
-24 17 0 -1 63 -19 67 -17 5 -17 7 -3 34 18 36 12 38 -11 2z"/>
<path d="M1145 1580 c-3 -6 1 -7 9 -4 18 7 21 14 7 14 -6 0 -13 -4 -16 -10z"/>
<path d="M1580 1575 c-6 -8 -21 -17 -32 -21 -45 -14 -72 -54 -47 -70 7 -4 9 0
5 13 -5 16 3 25 44 47 27 15 50 31 50 37 0 13 -6 11 -20 -6z"/>
<path d="M1650 1578 c0 -6 3 -8 7 -5 3 4 11 -1 18 -10 9 -13 14 -13 20 -3 5 8
4 11 -2 7 -6 -4 -13 0 -17 8 -6 18 -26 20 -26 3z"/>
<path d="M673 1535 c0 -27 2 -38 4 -22 2 15 2 37 0 50 -2 12 -4 0 -4 -28z"/>
<path d="M915 1558 l-20 -21 23 12 c12 6 22 16 22 21 0 13 -2 12 -25 -12z"/>
<path d="M1435 1545 c-11 -19 -16 -37 -12 -41 4 -4 7 0 7 9 0 10 6 16 13 15 6
-2 11 3 9 11 -1 7 3 19 9 27 6 8 7 14 2 14 -6 0 -18 -16 -28 -35z"/>
<path d="M545 1560 c3 -5 8 -10 11 -10 2 0 4 5 4 10 0 6 -5 10 -11 10 -5 0 -7
-4 -4 -10z"/>
<path d="M1800 1566 c0 -9 30 -14 35 -6 4 6 -3 10 -14 10 -12 0 -21 -2 -21 -4z"/>
<path d="M2115 1559 c-4 -6 -5 -12 -2 -15 2 -3 7 2 10 11 7 17 1 20 -8 4z"/>
<path d="M2150 1550 c0 -11 -4 -20 -10 -20 -5 0 -19 -9 -30 -20 -11 -11 -16
-20 -11 -20 6 0 13 5 16 10 3 6 11 10 17 10 6 0 5 -7 -3 -17 -7 -10 -2 -7 12
6 22 23 34 71 17 71 -5 0 -8 -9 -8 -20z"/>
<path d="M2856 1553 c-6 -14 -5 -15 5 -6 7 7 10 15 7 18 -3 3 -9 -2 -12 -12z"/>
<path d="M387 1553 c-4 -3 -7 -13 -7 -22 0 -11 3 -11 16 5 8 10 13 13 9 7 -4
-9 -1 -11 11 -6 11 4 15 3 10 -5 -3 -6 -1 -14 5 -17 19 -13 22 5 4 25 -18 20
-36 25 -48 13z"/>
<path d="M1385 1539 c3 -14 -1 -41 -10 -62 -9 -21 -13 -43 -9 -49 4 -5 0 -14
-7 -19 -11 -7 -10 -9 4 -9 12 0 17 8 17 29 0 16 7 45 15 65 14 33 14 38 0 53
-15 14 -15 13 -10 -8z"/>
<path d="M2823 1545 c0 -8 4 -15 9 -15 4 0 8 4 8 9 0 6 -4 12 -8 15 -5 3 -9
-1 -9 -9z"/>
<path d="M1002 1539 c-12 -5 -31 -23 -43 -41 -17 -28 -20 -44 -15 -102 6 -80
20 -103 36 -61 9 23 7 30 -10 45 -13 11 -16 20 -9 22 6 2 14 27 16 55 4 42 9
52 27 57 32 9 56 7 56 -3 0 -5 -12 -8 -26 -5 -16 3 -23 1 -19 -6 4 -6 14 -9
23 -8 10 2 18 -5 20 -17 2 -15 1 -16 -6 -7 -7 11 -10 11 -15 -3 -4 -9 -3 -14
2 -11 22 14 45 -63 27 -92 -4 -7 -2 -12 3 -12 11 0 15 18 13 50 0 8 5 18 11
22 9 6 9 8 1 8 -7 0 -14 7 -18 15 -7 20 8 19 28 -1 19 -19 22 -49 4 -38 -7 5
-5 -3 4 -16 9 -14 21 -24 27 -22 16 3 13 -28 -4 -62 -8 -15 -15 -34 -15 -41 0
-19 -27 -38 -35 -25 -3 5 -10 10 -16 10 -5 0 -4 -9 3 -20 7 -11 23 -20 35 -20
16 0 21 -4 17 -15 -4 -8 -1 -15 5 -15 6 0 11 -7 11 -16 0 -8 -4 -12 -10 -9 -5
3 -10 2 -10 -2 0 -5 9 -14 20 -21 19 -12 20 -11 13 15 -4 16 -7 40 -7 56 1 15
-3 27 -7 27 -15 0 -10 22 8 43 21 22 28 133 11 154 -6 7 -7 13 -3 13 4 0 2 6
-4 13 -6 8 -7 17 -3 21 4 4 0 6 -8 4 -9 -2 -14 3 -12 12 2 8 1 12 -3 8 -4 -3
-15 1 -25 9 -31 27 -74 41 -98 32z m110 -63 c27 -24 44 -91 23 -91 -5 0 -8 10
-7 21 2 13 -10 37 -28 58 -36 41 -29 48 12 12z"/>
<path d="M1631 1533 c-1 -13 8 -27 19 -33 14 -7 20 -7 20 0 0 5 -4 10 -8 10
-5 0 -14 10 -20 23 l-11 22 0 -22z"/>
<path d="M606 1523 c-6 -14 -5 -15 5 -6 7 7 10 15 7 18 -3 3 -9 -2 -12 -12z"/>
<path d="M1200 1519 c0 -5 5 -7 10 -4 6 3 10 8 10 11 0 2 -4 4 -10 4 -5 0 -10
-5 -10 -11z"/>
<path d="M1687 1503 c3 -10 18 -29 32 -43 14 -14 31 -38 36 -54 6 -16 13 -28
16 -25 4 2 15 -4 25 -13 11 -9 31 -21 45 -27 26 -9 27 -9 16 19 -12 31 -27 34
-40 10 -5 -10 -6 -8 -3 6 5 30 -10 55 -20 31 -3 -9 -9 -17 -13 -17 -11 0 -8
44 4 52 6 5 5 8 -3 8 -7 0 -10 5 -6 11 4 7 -2 7 -17 -1 -13 -7 -21 -9 -16 -5
7 9 -40 65 -55 65 -4 0 -5 -8 -1 -17z"/>
<path d="M1746 1512 c-3 -6 -1 -14 5 -17 14 -9 20 -2 10 14 -6 8 -11 9 -15 3z"/>
<path d="M270 1508 c0 -4 4 -18 9 -32 7 -17 7 -26 -2 -30 -9 -3 -9 -5 0 -5 21
-2 24 18 9 46 -8 16 -15 25 -16 21z"/>
<path d="M436 1488 c3 -5 10 -6 15 -3 13 9 11 12 -6 12 -8 0 -12 -4 -9 -9z"/>
<path d="M750 1489 c0 -5 5 -7 10 -4 6 3 10 8 10 11 0 2 -4 4 -10 4 -5 0 -10
-5 -10 -11z"/>
<path d="M2563 1469 c-2 -23 3 -25 10 -4 4 8 3 16 -1 19 -4 3 -9 -4 -9 -15z"/>
<path d="M126 1472 c-3 -5 1 -9 9 -9 8 0 12 4 9 9 -3 4 -7 8 -9 8 -2 0 -6 -4
-9 -8z"/>
<path d="M1445 1469 c-4 -6 -5 -12 -2 -15 2 -3 7 2 10 11 7 17 1 20 -8 4z"/>
<path d="M2926 1463 c-6 -14 -5 -15 5 -6 7 7 10 15 7 18 -3 3 -9 -2 -12 -12z"/>
<path d="M465 1450 c-3 -5 -1 -10 4 -10 6 0 11 5 11 10 0 6 -2 10 -4 10 -3 0
-8 -4 -11 -10z"/>
<path d="M2820 1456 c0 -2 7 -9 15 -16 9 -7 15 -8 15 -2 0 5 -7 12 -15 16 -8
3 -15 4 -15 2z"/>
<path d="M390 1431 c5 -11 15 -23 21 -27 6 -3 3 5 -6 20 -20 30 -30 35 -15 7z"/>
<path d="M550 1441 c0 -6 4 -13 10 -16 6 -3 7 1 4 9 -7 18 -14 21 -14 7z"/>
<path d="M988 1430 c-11 -38 -10 -56 3 -43 6 6 9 23 7 39 l-3 29 -7 -25z"/>
<path d="M1285 1430 c3 -5 8 -10 11 -10 2 0 4 5 4 10 0 6 -5 10 -11 10 -5 0
-7 -4 -4 -10z"/>
<path d="M2075 1430 c3 -5 8 -10 11 -10 2 0 4 5 4 10 0 6 -5 10 -11 10 -5 0
-7 -4 -4 -10z"/>
<path d="M2916 1424 c-4 -9 -4 -19 -1 -22 2 -3 7 3 11 12 4 9 4 19 1 22 -2 3
-7 -3 -11 -12z"/>
<path d="M49 1413 c-13 -16 -12 -17 4 -4 9 7 17 15 17 17 0 8 -8 3 -21 -13z"/>
<path d="M2750 1420 c0 -5 5 -10 11 -10 5 0 7 5 4 10 -3 6 -8 10 -11 10 -2 0
-4 -4 -4 -10z"/>
<path d="M310 1411 c0 -6 4 -13 10 -16 6 -3 7 1 4 9 -7 18 -14 21 -14 7z"/>
<path d="M1830 1410 c0 -5 5 -10 11 -10 5 0 7 5 4 10 -3 6 -8 10 -11 10 -2 0
-4 -4 -4 -10z"/>
<path d="M2134 1405 c-4 -8 -1 -22 6 -30 7 -9 10 -19 6 -22 -4 -4 -11 -1 -16
7 -8 13 -10 12 -10 -2 0 -10 7 -18 15 -18 8 0 15 -5 15 -11 0 -5 -4 -7 -10 -4
-5 3 -10 2 -10 -4 0 -5 5 -13 10 -16 6 -4 8 -10 6 -14 -3 -4 0 -13 5 -21 8
-11 10 -8 6 12 -2 15 0 29 4 30 5 2 5 18 -1 37 -5 19 -7 38 -4 42 3 5 0 9 -6
9 -6 0 -8 5 -5 10 3 6 4 10 0 10 -3 0 -8 -7 -11 -15z"/>
<path d="M1408 1403 c7 -3 16 -2 19 1 4 3 -2 6 -13 5 -11 0 -14 -3 -6 -6z"/>
<path d="M815 1390 c-3 -5 -1 -10 4 -10 6 0 11 5 11 10 0 6 -2 10 -4 10 -3 0
-8 -4 -11 -10z"/>
<path d="M1026 1361 c-28 -44 -38 -129 -13 -115 9 5 9 4 1 -5 -8 -9 -9 -25 -2
-54 6 -28 6 -43 -1 -45 -6 -2 -11 -8 -11 -14 0 -7 5 -6 14 1 11 10 16 8 21 -8
3 -11 12 -18 19 -15 8 3 16 -4 19 -15 7 -28 29 -27 25 1 -2 11 -11 22 -20 24
-22 3 -44 24 -46 44 -1 8 -3 40 -5 70 -2 30 -7 63 -11 72 -5 11 1 29 20 53 15
19 24 38 21 41 -3 3 -17 -12 -31 -35z"/>
<path d="M879 1380 c-3 -8 5 -46 17 -84 22 -63 36 -155 38 -250 1 -23 6 -41
15 -44 9 -3 11 2 8 14 -12 40 -18 189 -8 174 16 -22 13 -3 -5 38 -51 118 -51
117 -34 107 6 -3 7 1 3 10 -4 13 -8 14 -14 4 -5 -8 -9 -2 -11 17 -2 18 -5 23
-9 14z"/>
<path d="M2220 1383 c0 -4 9 -25 20 -48 11 -23 22 -66 25 -95 5 -59 22 -119
37 -135 7 -7 8 -3 5 10 -3 11 -8 29 -11 40 -3 11 -8 40 -11 65 -8 59 -13 77
-36 128 -17 38 -29 53 -29 35z"/>
<path d="M1310 1369 c0 -5 5 -7 10 -4 6 3 10 8 10 11 0 2 -4 4 -10 4 -5 0 -10
-5 -10 -11z"/>
<path d="M1186 1357 c3 -10 9 -15 12 -12 3 3 0 11 -7 18 -10 9 -11 8 -5 -6z"/>
<path d="M1436 1354 c-4 -9 -4 -19 -1 -22 3 -3 5 0 5 6 0 18 14 15 46 -10 30
-24 54 -32 54 -17 0 5 -7 9 -15 9 -8 0 -15 5 -15 12 0 6 -3 8 -6 5 -4 -4 -19
2 -34 13 -25 18 -29 18 -34 4z"/>
<path d="M1880 1356 c7 -7 13 -7 20 0 6 6 3 10 -10 10 -13 0 -16 -4 -10 -10z"/>
<path d="M1923 1355 c0 -8 4 -12 9 -9 4 3 8 1 8 -5 0 -13 -15 -22 -24 -14 -11
11 -36 12 -36 1 0 -6 7 -8 15 -5 8 4 17 2 20 -3 8 -13 45 11 45 29 0 8 -3 11
-7 8 -3 -4 -11 -2 -18 3 -8 7 -12 5 -12 -5z"/>
<path d="M486 1339 c3 -5 14 -14 24 -19 16 -8 18 -7 14 4 -3 8 -14 16 -25 19
-10 3 -17 1 -13 -4z"/>
<path d="M802 1343 c1 -5 -5 -20 -12 -35 -13 -27 -21 -32 -48 -29 -7 1 -12 -2
-11 -6 4 -25 -4 -40 -32 -56 -23 -12 -35 -14 -44 -7 -9 8 -14 6 -18 -4 -7 -19
6 -28 27 -20 9 3 16 1 16 -5 0 -6 5 -11 11 -11 6 0 8 9 4 21 -5 14 -3 19 3 15
12 -7 89 69 115 113 16 27 16 31 3 31 -9 0 -15 -3 -14 -7z"/>
<path d="M2064 1338 c-4 -7 -4 -10 1 -6 4 4 16 -3 25 -15 10 -12 20 -20 22
-17 2 3 -6 15 -18 28 -17 18 -24 20 -30 10z"/>
<path d="M1625 1320 c3 -5 8 -10 11 -10 2 0 4 5 4 10 0 6 -5 10 -11 10 -5 0
-7 -4 -4 -10z"/>
<path d="M1676 1315 c-9 -26 -7 -32 5 -12 6 10 9 21 6 23 -2 3 -7 -2 -11 -11z"/>
<path d="M416 1304 c-6 -17 10 -45 23 -41 4 1 20 -13 35 -30 15 -18 32 -33 37
-33 4 0 36 -18 70 -40 41 -26 73 -40 96 -40 37 0 37 0 6 -100 -19 -59 -42
-152 -42 -165 0 -17 21 38 26 70 2 17 11 35 19 41 7 6 11 13 8 16 -7 8 17 99
25 94 4 -3 5 11 3 30 -2 18 -8 31 -13 28 -5 -3 -12 3 -16 12 -6 16 -7 16 -13
0 -5 -16 -8 -17 -21 -4 -8 8 -20 13 -27 10 -6 -2 -16 7 -21 20 -6 12 -10 18
-10 11 -1 -8 -10 -7 -31 5 -17 9 -28 23 -25 30 2 7 -1 12 -8 11 -26 -3 -37 2
-37 16 0 8 -9 19 -20 25 -11 6 -18 14 -16 18 3 5 0 14 -6 22 -8 12 -9 11 -4
-5 6 -19 5 -19 -8 -2 -16 21 -22 21 -30 1z"/>
<path d="M1585 1310 c4 -6 11 -8 16 -5 14 9 11 15 -7 15 -8 0 -12 -5 -9 -10z"/>
<path d="M1057 1288 c-9 -31 -2 -33 11 -3 6 14 8 25 3 25 -5 0 -11 -10 -14
-22z"/>
<path d="M1307 1298 c-2 -8 2 -23 10 -33 13 -19 14 -18 7 10 -8 37 -10 39 -17
23z"/>
<path d="M1720 1299 c0 -5 -5 -7 -12 -3 -7 4 -8 3 -4 -5 6 -9 11 -9 22 0 17
14 18 19 4 19 -5 0 -10 -5 -10 -11z"/>
<path d="M535 1290 c-4 -6 1 -7 11 -3 13 5 15 3 9 -7 -5 -9 -4 -11 4 -6 6 4 9
12 6 17 -8 12 -22 12 -30 -1z"/>
<path d="M1545 1290 c-3 -5 -1 -10 4 -10 6 0 11 5 11 10 0 6 -2 10 -4 10 -3 0
-8 -4 -11 -10z"/>
<path d="M1750 1280 c0 -5 5 -10 11 -10 5 0 7 -5 3 -12 -4 -7 -3 -8 5 -4 9 6
9 11 0 22 -14 17 -19 18 -19 4z"/>
<path d="M570 1248 c0 -12 3 -18 7 -14 11 10 12 36 2 36 -5 0 -9 -10 -9 -22z"/>
<path d="M1370 1261 c0 -10 19 -25 25 -20 1 2 -3 10 -11 17 -8 7 -14 8 -14 3z"/>
<path d="M1566 1258 c3 -5 10 -6 15 -3 13 9 11 12 -6 12 -8 0 -12 -4 -9 -9z"/>
<path d="M1292 1240 c0 -14 2 -19 5 -12 2 6 2 18 0 25 -3 6 -5 1 -5 -13z"/>
<path d="M1455 1231 c-3 -5 -2 -12 3 -15 5 -3 9 1 9 9 0 17 -3 19 -12 6z"/>
<path d="M1595 1220 c10 -11 22 -20 27 -20 4 0 -1 9 -12 20 -11 11 -23 20 -27
20 -3 0 2 -9 12 -20z"/>
<path d="M597 1215 c3 -8 9 -12 14 -9 12 7 11 11 -5 17 -10 4 -13 1 -9 -8z"/>
<path d="M845 1220 c-3 -5 -1 -10 4 -10 6 0 11 5 11 10 0 6 -2 10 -4 10 -3 0
-8 -4 -11 -10z"/>
<path d="M2505 1210 c-4 -6 -11 -7 -17 -4 -7 4 -8 2 -4 -5 6 -8 12 -9 20 -2 7
6 17 7 21 3 5 -4 5 -1 1 6 -9 15 -13 15 -21 2z"/>
<path d="M2967 1205 c3 -8 9 -12 14 -9 12 7 11 11 -5 17 -10 4 -13 1 -9 -8z"/>
<path d="M1916 1202 c-3 -6 -1 -14 5 -17 15 -10 25 3 12 16 -7 7 -13 7 -17 1z"/>
<path d="M710 1185 c0 -8 2 -15 4 -15 2 0 6 7 10 15 3 8 1 15 -4 15 -6 0 -10
-7 -10 -15z"/>
<path d="M855 1189 c-4 -6 -5 -12 -2 -15 2 -3 7 2 10 11 7 17 1 20 -8 4z"/>
<path d="M1070 1192 c0 -5 7 -15 15 -22 8 -7 15 -8 15 -2 0 5 -7 15 -15 22 -8
7 -15 8 -15 2z"/>
<path d="M2101 1187 c-1 -12 -7 -17 -18 -16 -10 2 -29 -3 -42 -10 -18 -10 -20
-16 -11 -24 8 -9 14 -8 21 6 8 14 18 16 52 11 36 -6 40 -5 26 7 -9 8 -19 21
-22 29 -4 11 -6 11 -6 -3z"/>
<path d="M2187 1193 c-4 -3 -20 -6 -37 -5 -16 0 -30 -4 -30 -9 0 -5 6 -9 13
-8 37 5 54 -19 37 -51 -7 -13 -5 -21 7 -31 15 -13 16 -11 10 10 -3 13 -1 33 5
44 7 14 7 17 -1 13 -15 -10 -14 17 1 32 7 7 10 12 7 12 -3 0 -9 -3 -12 -7z"/>
<path d="M1040 1184 c1 -15 29 -48 36 -41 3 3 -3 16 -15 28 -12 13 -21 19 -21
13z"/>
<path d="M726 1163 c-6 -14 -5 -15 5 -6 7 7 10 15 7 18 -3 3 -9 -2 -12 -12z"/>
<path d="M956 1145 c7 -34 30 -62 41 -51 4 4 3 10 -3 14 -6 4 -19 21 -28 37
l-16 30 6 -30z"/>
<path d="M2795 1160 c3 -5 8 -10 11 -10 2 0 4 5 4 10 0 6 -5 10 -11 10 -5 0
-7 -4 -4 -10z"/>
<path d="M1448 1135 c2 -14 6 -25 8 -25 2 0 4 11 4 25 0 14 -4 25 -9 25 -4 0
-6 -11 -3 -25z"/>
<path d="M1645 1150 c-3 -6 1 -7 9 -4 18 7 21 14 7 14 -6 0 -13 -4 -16 -10z"/>
<path d="M1676 1128 c-6 -30 -7 -31 -21 -12 -14 18 -14 17 -4 -8 7 -16 17 -28
22 -28 6 0 8 3 4 6 -3 4 0 19 8 35 8 15 11 30 6 33 -5 3 -11 -9 -15 -26z"/>
<path d="M1927 1153 c-3 -5 -1 -17 4 -28 6 -17 7 -16 6 8 -1 28 -3 32 -10 20z"/>
<path d="M200 1141 c0 -6 4 -13 10 -16 6 -3 7 1 4 9 -7 18 -14 21 -14 7z"/>
<path d="M840 1140 c0 -5 5 -10 11 -10 5 0 7 5 4 10 -3 6 -8 10 -11 10 -2 0
-4 -4 -4 -10z"/>
<path d="M1320 1139 c0 -5 5 -7 10 -4 6 3 10 8 10 11 0 2 -4 4 -10 4 -5 0 -10
-5 -10 -11z"/>
<path d="M1395 1140 c3 -5 8 -10 11 -10 2 0 4 5 4 10 0 6 -5 10 -11 10 -5 0
-7 -4 -4 -10z"/>
<path d="M1740 1140 c0 -13 18 -22 24 -11 3 5 -1 11 -9 15 -8 3 -15 1 -15 -4z"/>
<path d="M143 1123 c4 -3 1 -13 -6 -22 -11 -14 -10 -14 5 -2 16 12 16 31 1 31
-4 0 -3 -3 0 -7z"/>
<path d="M1500 1121 c0 -6 4 -13 10 -16 6 -3 7 1 4 9 -7 18 -14 21 -14 7z"/>
<path d="M1999 1110 c-9 -9 -19 -24 -21 -31 -7 -18 10 -51 22 -44 9 6 80 -44
80 -56 0 -6 -49 -32 -65 -34 -11 -1 -9 -21 5 -45 7 -10 9 -11 10 -2 0 10 5 10
20 2 11 -6 20 -7 20 -1 0 12 -29 23 -42 15 -5 -4 -5 4 2 16 8 16 18 21 36 17
13 -2 21 -1 19 3 -6 10 21 21 29 13 3 -4 6 -19 6 -35 0 -25 -3 -28 -20 -23
-11 4 -20 2 -20 -4 0 -6 7 -11 15 -11 18 0 19 -14 3 -28 -9 -7 -29 -7 -58 -2
-66 13 -143 11 -162 -4 -10 -7 -15 -16 -11 -19 3 -4 -2 -17 -13 -29 -19 -22
-19 -22 0 -8 18 14 19 13 13 -3 -4 -10 -7 -25 -7 -33 0 -9 -4 -13 -9 -10 -5 3
-8 -9 -7 -27 0 -21 -3 -31 -11 -29 -7 1 -13 -8 -14 -20 0 -13 -2 -38 -4 -56
-2 -18 0 -30 5 -27 5 3 11 -1 14 -7 3 -7 4 1 2 17 -2 17 4 55 14 85 10 30 21
76 25 101 4 30 14 50 27 58 11 7 17 8 14 2 -7 -11 28 -9 73 5 17 5 22 4 17 -4
-4 -8 -2 -10 8 -6 19 7 53 -12 88 -50 16 -17 28 -25 28 -16 0 7 -9 23 -20 35
l-20 22 30 26 c29 26 30 30 24 84 l-7 56 29 -7 c72 -18 84 -18 84 -5 0 8 -9
20 -20 27 -11 7 -20 19 -20 26 0 8 -5 18 -12 22 -8 5 -9 2 -5 -9 6 -16 4 -16
-24 -1 -17 8 -28 11 -25 5 5 -8 0 -8 -17 -2 -18 7 -30 6 -43 -4 -27 -20 -43
-18 -41 5 1 17 9 20 47 20 34 1 41 3 28 10 -9 6 -33 8 -53 6 -28 -4 -35 -1
-33 11 4 23 -14 24 -33 3z m-2 -52 c-3 -8 -6 -5 -6 6 -1 11 2 17 5 13 3 -3 4
-12 1 -19z m33 12 c0 -5 -4 -10 -10 -10 -5 0 -10 5 -10 10 0 6 5 10 10 10 6 0
10 -4 10 -10z m153 -49 c8 -8 2 -11 -21 -11 -19 0 -35 -7 -41 -17 -6 -10 -11
-12 -11 -5 0 6 -6 12 -14 12 -13 0 -29 24 -21 32 8 8 98 -1 108 -11z"/>
<path d="M474 1111 c3 -5 16 -11 28 -14 22 -6 22 -5 4 8 -22 17 -40 20 -32 6z"/>
<path d="M1471 1104 c0 -11 3 -14 6 -6 3 7 2 16 -1 19 -3 4 -6 -2 -5 -13z"/>
<path d="M2558 1113 c7 -3 16 -2 19 1 4 3 -2 6 -13 5 -11 0 -14 -3 -6 -6z"/>
<path d="M765 1101 c-3 -5 -2 -12 3 -15 5 -3 9 1 9 9 0 17 -3 19 -12 6z"/>
<path d="M1120 1084 c0 -14 4 -23 10 -19 6 3 10 15 10 26 0 10 -4 19 -10 19
-5 0 -10 -12 -10 -26z"/>
<path d="M406 1089 c4 -7 -26 -23 -38 -21 -5 1 -8 -5 -8 -13 0 -8 -5 -15 -10
-15 -6 0 -10 -6 -9 -12 4 -35 -1 -41 -19 -25 -10 10 -27 17 -38 16 -16 0 -16
-1 4 -9 27 -11 40 -39 23 -50 -7 -4 -12 -10 -12 -14 3 -18 0 -20 -10 -6 -9 13
-10 12 -5 -3 3 -10 -5 -39 -18 -65 -48 -94 -77 -147 -86 -156 -13 -13 -13 -36
1 -36 6 0 9 7 6 14 -4 11 -1 13 10 9 11 -4 14 -2 9 5 -4 6 5 33 19 59 14 26
54 102 89 167 61 114 66 121 112 141 l49 22 -37 -1 c-20 -1 -34 -4 -32 -7z"/>
<path d="M574 1089 c1 -7 12 -16 25 -20 14 -6 20 -5 16 1 -3 6 -12 10 -20 10
-7 0 -16 5 -18 10 -3 6 -4 5 -3 -1z"/>
<path d="M1503 1070 c-2 -19 8 -26 20 -14 7 7 -2 34 -12 34 -4 0 -7 -9 -8 -20z"/>
<path d="M2306 1075 c-3 -9 0 -15 9 -15 9 0 12 6 9 15 -4 8 -7 15 -9 15 -2 0
-5 -7 -9 -15z"/>
<path d="M195 1071 c-3 -5 -2 -12 3 -15 5 -3 9 1 9 9 0 17 -3 19 -12 6z"/>
<path d="M1010 1077 c0 -3 7 -18 15 -33 8 -16 15 -36 16 -44 1 -17 19 -46 66
-109 25 -33 32 -53 32 -84 -1 -23 11 -74 25 -113 14 -39 26 -90 26 -112 0 -33
6 -45 31 -66 32 -27 49 -33 49 -16 0 6 -4 10 -8 10 -5 0 -20 10 -35 22 -19 17
-26 36 -30 73 -5 54 -8 65 -26 110 -7 17 -15 50 -17 75 -5 60 -9 78 -17 86 -4
4 -7 15 -7 25 0 12 -5 16 -15 12 -14 -5 -14 -2 -3 22 11 25 10 29 -12 47 -13
10 -29 17 -37 14 -7 -3 -13 1 -13 10 0 8 4 13 9 9 5 -3 12 -1 15 4 4 5 -3 12
-14 16 -12 4 -19 14 -18 23 2 9 -5 18 -14 20 -10 2 -18 1 -18 -1z m78 -99 c7
-7 12 -21 12 -31 0 -17 -2 -17 -20 6 -11 14 -20 28 -20 31 0 10 15 7 28 -6z"/>
<path d="M1938 1067 c7 -8 8 -18 4 -22 -4 -5 -1 -5 6 -1 17 10 15 23 -4 30
-13 5 -14 4 -6 -7z"/>
<path d="M1655 1057 c3 -7 -1 -20 -10 -27 -8 -7 -15 -17 -15 -22 0 -6 9 0 20
13 10 13 19 19 20 13 0 -7 8 -15 17 -18 14 -6 14 -3 -3 15 -10 11 -18 24 -16
27 2 4 -1 8 -7 10 -6 2 -9 -3 -6 -11z"/>
<path d="M463 1044 c-3 -8 -2 -19 4 -25 5 -5 9 1 11 16 2 28 -6 33 -15 9z"/>
<path d="M565 1050 c-4 -6 -15 -8 -26 -5 -14 5 -17 2 -13 -8 7 -19 34 -15 46
6 10 18 3 24 -7 7z"/>
<path d="M974 1047 c3 -10 6 -32 6 -48 0 -16 3 -29 8 -29 11 0 7 54 -7 75 -11
17 -12 18 -7 2z"/>
<path d="M1733 1035 c-3 -9 -3 -18 -1 -21 3 -3 8 4 11 16 6 23 -1 27 -10 5z"/>
<path d="M644 986 c-19 -60 -30 -70 -36 -33 -4 18 -9 -47 -9 -103 0 -44 -34
-217 -45 -230 -11 -13 -10 -16 5 -17 15 -1 20 8 24 48 3 27 13 56 22 65 8 8
15 21 15 27 0 7 -4 6 -10 -3 -13 -20 -13 -7 1 82 7 40 23 104 36 142 13 38 22
71 19 73 -2 3 -12 -20 -22 -51z"/>
<path d="M16 1017 c3 -10 9 -15 12 -12 3 3 0 11 -7 18 -10 9 -11 8 -5 -6z"/>
<path d="M420 1021 c0 -6 5 -13 10 -16 6 -3 10 1 10 9 0 9 -4 16 -10 16 -5 0
-10 -4 -10 -9z"/>
<path d="M2273 1016 c3 -8 1 -17 -6 -20 -7 -2 -1 -5 12 -5 18 -1 21 2 12 12
-6 8 -8 17 -4 20 3 4 1 7 -6 7 -7 0 -11 -6 -8 -14z"/>
<path d="M2300 1019 c0 -5 5 -7 10 -4 6 3 10 8 10 11 0 2 -4 4 -10 4 -5 0 -10
-5 -10 -11z"/>
<path d="M1833 1003 c9 -2 17 -9 17 -14 0 -5 12 -8 28 -8 20 1 22 2 7 6 -11 3
-24 9 -29 14 -6 5 -17 8 -25 8 -12 -1 -12 -2 2 -6z"/>
<path d="M2625 1000 c-2 -3 9 -6 25 -6 17 0 27 2 25 5 -8 7 -45 9 -50 1z"/>
<path d="M407 980 c-4 -14 -6 -38 -6 -55 1 -27 2 -26 10 10 11 45 7 85 -4 45z"/>
<path d="M1517 981 c2 -8 -2 -18 -8 -22 -14 -9 -22 -66 -9 -74 6 -3 6 -15 0
-29 -7 -19 -4 -28 12 -43 20 -18 20 -18 15 12 -18 95 -18 114 0 141 10 16 13
25 6 21 -6 -4 -13 -4 -16 0 -2 5 -2 2 0 -6z"/>
<path d="M550 985 c0 -10 29 -24 34 -17 3 6 -3 12 -14 15 -11 3 -20 4 -20 2z"/>
<path d="M1827 984 c-3 -3 -3 -13 1 -22 5 -15 4 -16 -14 -2 -17 14 -18 14 -6
-2 10 -12 11 -22 3 -36 -10 -19 -6 -32 11 -32 5 0 6 5 3 10 -3 6 -2 10 2 10 5
0 10 18 11 40 3 40 1 46 -11 34z"/>
<path d="M1929 977 c-5 -45 -4 -65 4 -60 5 3 7 13 4 22 -2 11 1 18 10 18 8 0
12 -6 9 -13 -3 -9 1 -11 12 -7 31 11 34 15 15 27 -30 21 -53 26 -54 13z"/>
<path d="M942 950 c0 -14 2 -19 5 -12 2 6 2 18 0 25 -3 6 -5 1 -5 -13z"/>
<path d="M1135 960 c-3 -6 1 -7 9 -4 18 7 21 14 7 14 -6 0 -13 -4 -16 -10z"/>
<path d="M1640 960 c0 -5 5 -10 11 -10 5 0 7 5 4 10 -3 6 -8 10 -11 10 -2 0
-4 -4 -4 -10z"/>
<path d="M1853 958 c2 -7 11 -12 20 -12 9 1 15 -2 12 -6 -3 -4 1 -10 9 -13 9
-4 13 0 12 10 -2 9 -11 20 -22 24 -28 11 -36 10 -31 -3z"/>
<path d="M971 938 c0 -16 2 -18 6 -8 3 8 11 18 17 22 7 5 4 8 -6 8 -12 0 -18
-7 -17 -22z"/>
<path d="M1689 938 c5 -13 9 -27 9 -33 0 -5 5 -10 12 -11 7 -2 6 -1 -1 3 -8 4
-7 8 2 14 10 6 11 9 2 9 -7 0 -13 6 -13 14 0 8 -4 18 -10 21 -6 4 -7 -2 -1
-17z"/>
<path d="M427 943 c-11 -10 -8 -112 4 -153 12 -38 50 -75 44 -42 -1 9 -7 16
-13 15 -5 -1 -10 8 -10 20 -1 12 -5 44 -10 70 -5 26 -5 50 0 53 4 3 8 2 9 -3
3 -35 30 -88 45 -88 9 0 33 48 33 65 0 8 -5 3 -11 -12 -5 -16 -14 -28 -19 -28
-5 0 -20 25 -34 55 -25 57 -27 60 -38 48z"/>
<path d="M2920 929 c0 -5 5 -7 10 -4 6 3 10 8 10 11 0 2 -4 4 -10 4 -5 0 -10
-5 -10 -11z"/>
<path d="M536 913 c-6 -14 -5 -15 5 -6 7 7 10 15 7 18 -3 3 -9 -2 -12 -12z"/>
<path d="M1012 910 c0 -14 2 -19 5 -12 2 6 2 18 0 25 -3 6 -5 1 -5 -13z"/>
<path d="M1443 913 c-4 -10 -11 -21 -16 -24 -5 -3 -2 -9 6 -12 11 -4 16 3 19
24 5 32 1 38 -9 12z"/>
<path d="M1985 920 c-4 -6 -13 -9 -21 -6 -7 3 -16 1 -19 -4 -4 -6 5 -10 19
-10 24 0 44 16 33 26 -3 3 -8 0 -12 -6z"/>
<path d="M980 905 c-7 -9 -8 -15 -2 -15 5 0 12 7 16 15 3 8 4 15 2 15 -2 0 -9
-7 -16 -15z"/>
<path d="M1622 900 c0 -14 2 -19 5 -12 2 6 2 18 0 25 -3 6 -5 1 -5 -13z"/>
<path d="M2890 913 c0 -6 5 -15 10 -18 6 -4 8 -11 5 -16 -3 -5 1 -6 10 -2 12
4 13 8 5 13 -7 4 -16 14 -21 21 -6 9 -9 10 -9 2z"/>
<path d="M220 906 c0 -2 8 -10 18 -17 15 -13 16 -12 3 4 -13 16 -21 21 -21 13z"/>
<path d="M1577 886 c-4 -10 -1 -13 8 -9 8 3 12 9 9 14 -7 12 -11 11 -17 -5z"/>
<path d="M1895 890 c-8 -13 5 -13 25 0 13 8 13 10 -2 10 -9 0 -20 -4 -23 -10z"/>
<path d="M2285 880 c3 -5 8 -10 11 -10 2 0 4 5 4 10 0 6 -5 10 -11 10 -5 0 -7
-4 -4 -10z"/>
<path d="M867 873 c-3 -5 -8 -33 -12 -63 -7 -56 -24 -103 -25 -67 0 9 -5 17
-11 17 -7 0 -5 -10 5 -25 9 -13 16 -39 17 -57 2 -45 31 105 30 155 0 35 2 37
17 25 15 -12 16 -11 3 5 -15 19 -18 20 -24 10z"/>
<path d="M1010 878 c-6 -18 -5 -35 2 -73 10 -57 14 -72 32 -141 19 -74 21
-108 4 -98 -7 4 -8 3 -4 -5 4 -6 12 -9 17 -5 6 3 10 0 8 -7 -3 -28 1 -39 17
-39 8 0 12 4 9 10 -7 11 -6 9 -33 141 -10 53 -22 101 -26 108 -4 6 -2 11 5 11
8 0 8 4 -1 16 -8 8 -17 32 -21 52 -3 20 -8 34 -9 30z"/>
<path d="M1796 865 c4 -8 10 -12 15 -9 14 8 10 24 -6 24 -9 0 -12 -6 -9 -15z"/>
<path d="M2651 864 c0 -11 3 -14 6 -6 3 7 2 16 -1 19 -3 4 -6 -2 -5 -13z"/>
<path d="M964 846 c-18 -23 -23 -26 -41 -26 -5 0 -3 -4 4 -8 14 -9 20 -82 9
-100 -4 -7 -2 -12 3 -12 6 0 11 6 11 14 0 8 6 17 13 19 10 4 10 6 0 6 -7 1
-13 6 -13 12 0 5 4 8 8 5 4 -2 6 12 4 31 -3 23 0 40 9 47 12 10 24 36 16 36
-2 0 -12 -11 -23 -24z"/>
<path d="M1836 853 c-3 -7 -15 -13 -26 -13 -11 0 -20 -4 -20 -9 0 -15 18 -23
25 -11 4 6 10 8 15 5 4 -3 15 6 23 18 12 19 13 24 2 24 -8 0 -16 -6 -19 -14z"/>
<path d="M1556 852 c-3 -5 1 -9 9 -9 8 0 12 4 9 9 -3 4 -7 8 -9 8 -2 0 -6 -4
-9 -8z"/>
<path d="M2546 833 c-6 -14 -5 -15 5 -6 7 7 10 15 7 18 -3 3 -9 -2 -12 -12z"/>
<path d="M634 825 c-3 -8 -4 -20 -2 -27 3 -7 7 -1 10 15 6 29 1 36 -8 12z"/>
<path d="M730 815 c-7 -8 -17 -12 -23 -8 -6 4 -7 1 -3 -6 6 -9 13 -8 27 5 10
9 19 19 19 21 0 7 -8 2 -20 -12z"/>
<path d="M1096 817 c3 -10 9 -15 12 -12 3 3 0 11 -7 18 -10 9 -11 8 -5 -6z"/>
<path d="M1585 820 c-4 -6 -10 -8 -14 -6 -3 3 -7 -4 -7 -15 0 -10 6 -19 14
-19 8 0 12 6 9 13 -2 6 3 17 12 24 10 8 11 12 4 13 -6 0 -15 -5 -18 -10z"/>
<path d="M300 805 c0 -8 2 -15 4 -15 2 0 6 7 10 15 3 8 1 15 -4 15 -6 0 -10
-7 -10 -15z"/>
<path d="M1638 790 c-10 -18 -13 -32 -7 -36 5 -3 8 -2 7 3 -1 4 4 19 11 31 7
13 11 25 9 27 -2 2 -11 -9 -20 -25z"/>
<path d="M1816 811 c-4 -7 -14 -10 -22 -7 -10 4 -14 -2 -14 -20 0 -14 4 -23
10 -19 6 4 7 11 4 17 -4 6 -3 8 2 5 14 -8 37 9 32 24 -3 10 -6 10 -12 0z"/>
<path d="M490 790 c0 -11 2 -20 4 -20 2 0 6 9 9 20 3 11 1 20 -4 20 -5 0 -9
-9 -9 -20z"/>
<path d="M1470 803 c0 -5 7 -18 15 -29 13 -18 14 -18 8 4 -5 22 -23 41 -23 25z"/>
<path d="M1968 803 c6 -2 18 -2 25 0 6 3 1 5 -13 5 -14 0 -19 -2 -12 -5z"/>
<path d="M1606 784 c-5 -14 -4 -15 9 -4 17 14 19 20 6 20 -5 0 -12 -7 -15 -16z"/>
<path d="M2925 789 c-4 -6 -5 -12 -2 -15 2 -3 7 2 10 11 7 17 1 20 -8 4z"/>
<path d="M693 775 c0 -8 4 -15 9 -15 4 0 8 4 8 9 0 6 -4 12 -8 15 -5 3 -9 -1
-9 -9z"/>
<path d="M1102 775 c-2 -30 9 -65 19 -59 5 3 9 15 9 27 0 17 -2 19 -9 8 -7
-11 -10 -7 -14 15 -2 16 -5 20 -5 9z"/>
<path d="M1680 780 c0 -5 5 -10 11 -10 5 0 7 5 4 10 -3 6 -8 10 -11 10 -2 0
-4 -4 -4 -10z"/>
<path d="M1810 766 c0 -7 -14 -19 -30 -26 -17 -7 -33 -17 -37 -23 -3 -5 -1 -7
4 -4 6 4 13 0 16 -7 3 -8 1 -16 -5 -18 -14 -5 -20 -38 -6 -38 5 0 12 9 15 20
3 11 9 20 13 20 4 0 10 10 14 23 3 12 15 32 26 45 17 17 18 22 5 22 -8 0 -15
-6 -15 -14z"/>
<path d="M1547 763 c-10 -9 -9 -23 1 -23 5 0 9 7 9 15 0 17 -1 18 -10 8z"/>
<path d="M1977 762 c-12 -3 -17 -12 -15 -33 2 -30 22 -39 31 -15 4 11 1 13
-10 9 -11 -4 -14 -2 -11 8 3 9 17 13 39 11 19 -1 42 -3 51 -3 9 0 19 -7 22
-15 4 -11 -2 -13 -28 -9 -24 4 -33 2 -33 -9 0 -8 8 -13 19 -11 10 2 18 0 18
-6 0 -5 -5 -9 -12 -9 -9 0 -9 -3 0 -12 14 -14 16 -32 4 -24 -9 6 -5 -78 5
-104 3 -8 7 -24 9 -35 2 -11 6 -32 8 -47 3 -15 2 -29 -3 -32 -4 -3 -6 -21 -5
-41 2 -26 0 -34 -9 -29 -9 5 -9 4 0 -6 7 -8 16 -11 19 -7 8 8 12 196 4 203 -2
3 -6 33 -7 68 -3 47 0 66 12 76 8 7 15 17 15 23 0 5 7 15 16 22 14 10 5 13
-52 21 -38 5 -77 8 -87 6z"/>
<path d="M2476 762 c-3 -5 1 -9 9 -9 8 0 12 4 9 9 -3 4 -7 8 -9 8 -2 0 -6 -4
-9 -8z"/>
<path d="M409 759 c-8 -40 -7 -48 8 -53 9 -4 18 -4 21 -1 3 3 0 5 -8 5 -9 0
-10 3 -1 14 9 10 8 16 -4 26 -8 7 -15 11 -16 9z"/>
<path d="M870 751 c0 -6 4 -13 10 -16 6 -3 7 1 4 9 -7 18 -14 21 -14 7z"/>
<path d="M914 752 c3 -5 0 -13 -6 -15 -9 -4 -10 -6 -1 -6 17 -1 25 16 12 25
-7 4 -9 3 -5 -4z"/>
<path d="M1609 731 c13 -12 28 -21 35 -21 12 0 -5 14 -39 31 -16 8 -15 6 4
-10z"/>
<path d="M2531 734 c0 -11 3 -14 6 -6 3 7 2 16 -1 19 -3 4 -6 -2 -5 -13z"/>
<path d="M2725 740 c-3 -6 1 -7 9 -4 18 7 21 14 7 14 -6 0 -13 -4 -16 -10z"/>
<path d="M271 724 c0 -11 3 -14 6 -6 3 7 2 16 -1 19 -3 4 -6 -2 -5 -13z"/>
<path d="M496 723 c-6 -14 -5 -15 5 -6 7 7 10 15 7 18 -3 3 -9 -2 -12 -12z"/>
<path d="M644 722 c0 -10 6 -19 13 -19 8 0 9 6 2 19 -5 10 -11 18 -12 18 -2 0
-3 -8 -3 -18z"/>
<path d="M743 714 c-8 -21 -2 -23 25 -9 23 12 23 12 2 18 -13 3 -23 0 -27 -9z"/>
<path d="M1890 725 c-8 -45 -8 -47 2 -37 5 5 8 18 5 28 -3 11 -6 15 -7 9z"/>
<path d="M1932 710 c-7 -12 -8 -20 -2 -20 5 0 10 -5 10 -11 0 -5 -4 -8 -9 -4
-6 3 -15 -4 -21 -15 -7 -13 -7 -20 0 -20 5 0 10 4 10 9 0 5 11 8 25 6 14 -1
28 2 32 8 3 6 1 7 -4 4 -11 -7 -26 27 -24 51 3 17 -2 15 -17 -8z"/>
<path d="M2490 721 c0 -6 4 -13 10 -16 6 -3 7 1 4 9 -7 18 -14 21 -14 7z"/>
<path d="M815 711 c-3 -5 -1 -12 5 -16 5 -3 10 1 10 9 0 18 -6 21 -15 7z"/>
<path d="M900 709 c0 -5 -3 -8 -7 -6 -10 6 -8 -388 2 -500 4 -46 10 -83 14
-83 4 0 6 16 5 35 -2 19 0 35 4 35 12 0 12 43 0 57 -8 10 -7 13 3 14 8 0 5 4
-6 9 -17 7 -17 9 -2 9 9 1 17 5 17 11 0 5 -6 7 -14 4 -12 -5 -15 17 -14 135 0
78 5 141 9 141 5 0 18 -14 28 -31 18 -30 19 -30 18 -6 -1 14 -4 25 -7 24 -14
-4 -50 31 -50 48 1 18 3 17 24 -9 l24 -28 -5 25 c-3 14 -14 27 -24 30 -14 4
-19 14 -19 42 0 21 4 34 10 30 6 -3 7 1 4 9 -7 18 -14 21 -14 5z"/>
<path d="M962 657 c2 -37 7 -67 11 -67 5 0 5 5 2 10 -3 6 -2 10 3 10 9 0 -4
99 -14 109 -2 2 -3 -26 -2 -62z"/>
<path d="M193 677 c-31 -16 -43 -29 -47 -52 -5 -21 -9 -26 -15 -17 -7 11 -9
11 -14 0 -3 -10 3 -14 19 -14 16 0 23 5 20 13 -7 16 11 27 18 11 2 -7 4 -2 3
12 -2 21 3 26 28 28 17 2 27 0 22 -4 -4 -4 1 -17 11 -28 18 -21 44 -87 41
-103 -2 -4 3 -19 9 -33 6 -14 17 -45 23 -70 7 -25 13 -47 14 -50 1 -3 8 -26
15 -52 8 -27 18 -48 23 -48 5 0 6 -8 3 -17 -4 -9 -2 -19 4 -23 6 -4 11 -24 12
-46 1 -21 3 -33 6 -26 2 7 7 10 12 7 9 -6 2 26 -35 155 -45 158 -97 310 -105
310 -10 0 -25 40 -22 58 2 6 2 12 0 11 -2 0 -22 -10 -45 -22z"/>
<path d="M460 690 c0 -5 5 -10 11 -10 5 0 7 5 4 10 -3 6 -8 10 -11 10 -2 0 -4
-4 -4 -10z"/>
<path d="M1640 685 c0 -8 2 -15 4 -15 2 0 6 7 10 15 3 8 1 15 -4 15 -6 0 -10
-7 -10 -15z"/>
<path d="M280 683 c0 -15 18 -35 23 -27 3 5 -1 15 -9 22 -8 7 -14 9 -14 5z"/>
<path d="M395 668 c1 -12 8 -24 16 -26 12 -3 12 -2 0 6 -11 8 -11 10 0 14 7 2
9 10 5 16 -12 19 -23 14 -21 -10z"/>
<path d="M1011 674 c0 -11 3 -14 6 -6 3 7 2 16 -1 19 -3 4 -6 -2 -5 -13z"/>
<path d="M1601 674 c0 -11 3 -14 6 -6 3 7 2 16 -1 19 -3 4 -6 -2 -5 -13z"/>
<path d="M2716 681 c-4 -7 -5 -15 -2 -18 9 -9 19 4 14 18 -4 11 -6 11 -12 0z"/>
<path d="M2766 661 c10 -16 21 -28 25 -25 12 7 1 28 -22 42 -21 13 -21 13 -3
-17z"/>
<path d="M730 669 c0 -5 -6 -7 -12 -3 -7 4 -4 -2 6 -14 11 -12 20 -22 20 -22
1 0 3 11 4 25 1 14 -3 25 -8 25 -6 0 -10 -5 -10 -11z"/>
<path d="M924 655 c11 -24 26 -24 26 -1 0 8 -8 16 -18 18 -16 5 -17 2 -8 -17z"/>
<path d="M1127 651 c3 -14 11 -39 18 -56 8 -16 16 -41 19 -55 3 -14 16 -38 29
-54 18 -23 28 -27 43 -21 17 7 17 9 -8 18 -31 12 -50 47 -54 102 -2 23 -11 45
-21 52 -10 8 -12 13 -4 13 18 0 8 23 -10 26 -12 1 -15 -5 -12 -25z"/>
<path d="M470 665 c0 -5 5 -17 10 -25 5 -8 10 -10 10 -5 0 6 -5 17 -10 25 -5
8 -10 11 -10 5z"/>
<path d="M1776 655 c-3 -8 -1 -15 4 -15 15 0 12 -19 -5 -36 -8 -9 -15 -20 -15
-26 0 -6 9 1 20 15 11 14 20 37 20 51 0 28 -14 35 -24 11z"/>
<path d="M2490 641 c0 -6 4 -13 10 -16 6 -3 7 1 4 9 -7 18 -14 21 -14 7z"/>
<path d="M775 630 c3 -5 14 -10 23 -10 15 0 15 2 2 10 -20 13 -33 13 -25 0z"/>
<path d="M826 624 c-9 -22 -8 -26 6 -22 13 5 20 38 8 38 -4 0 -11 -7 -14 -16z"/>
<path d="M2353 625 c-3 -9 -3 -18 -1 -21 3 -3 8 4 11 16 6 23 -1 27 -10 5z"/>
<path d="M2274 618 c-4 -6 -3 -8 3 -5 14 9 14 -44 1 -60 -15 -18 0 -16 19 3
12 11 13 18 5 26 -8 8 -8 15 -2 24 7 8 6 13 -4 17 -9 4 -18 1 -22 -5z"/>
<path d="M2807 619 c7 -7 15 -10 18 -7 3 3 -2 9 -12 12 -14 6 -15 5 -6 -5z"/>
<path d="M729 608 c-1 -7 0 -26 1 -41 1 -15 -3 -34 -10 -42 -7 -9 -8 -15 0
-20 14 -8 13 -48 -2 -63 -7 -7 -8 -12 -4 -12 5 0 2 -8 -5 -17 -12 -14 -12 -16
0 -8 11 6 13 3 7 -16 -4 -13 -7 -36 -7 -51 1 -16 -3 -28 -9 -28 -7 0 -8 -6 -1
-19 6 -10 8 -20 6 -22 -2 -3 -5 -26 -6 -51 -2 -41 -5 -46 -18 -35 -12 9 -12 6
2 -16 10 -15 15 -32 12 -37 -3 -6 -2 -10 3 -10 5 0 13 -17 20 -37 l11 -38 -5
40 c-6 61 -6 121 1 220 17 236 20 307 13 311 -5 3 -8 -1 -9 -8z"/>
<path d="M1530 616 c0 -2 8 -10 18 -17 15 -13 16 -12 3 4 -13 16 -21 21 -21
13z"/>
<path d="M223 587 c0 -8 6 -14 14 -14 9 0 10 4 2 14 -6 7 -12 13 -14 13 -1 0
-2 -6 -2 -13z"/>
<path d="M1884 591 c4 -5 1 -12 -4 -14 -6 -3 -5 -4 2 -3 15 3 23 26 8 26 -6 0
-9 -4 -6 -9z"/>
<path d="M47 577 c-26 -6 -47 -14 -47 -19 0 -13 72 2 90 18 8 8 12 13 10 13
-3 -1 -26 -6 -53 -12z"/>
<path d="M560 580 c0 -5 5 -10 11 -10 5 0 7 5 4 10 -3 6 -8 10 -11 10 -2 0 -4
-4 -4 -10z"/>
<path d="M966 565 c4 -8 8 -15 10 -15 2 0 4 7 4 15 0 8 -4 15 -10 15 -5 0 -7
-7 -4 -15z"/>
<path d="M1925 570 c3 -5 8 -10 11 -10 2 0 4 5 4 10 0 6 -5 10 -11 10 -5 0 -7
-4 -4 -10z"/>
<path d="M823 563 c-7 -2 -13 -9 -13 -14 0 -6 4 -8 9 -4 5 3 12 -3 14 -12 3
-11 5 -8 6 10 0 15 0 27 -1 26 -2 0 -9 -3 -15 -6z"/>
<path d="M1975 559 c-4 -6 -5 -12 -2 -15 2 -3 7 2 10 11 7 17 1 20 -8 4z"/>
<path d="M125 549 c-4 -6 -5 -12 -2 -15 2 -3 7 2 10 11 7 17 1 20 -8 4z"/>
<path d="M555 552 c-12 -8 -16 -44 -5 -37 5 3 11 -3 13 -12 3 -10 4 -1 3 19 0
21 -1 38 -1 38 0 0 -4 -4 -10 -8z"/>
<path d="M1792 535 c-1 -17 2 -23 12 -19 8 3 12 14 9 25 -7 27 -18 24 -21 -6z"/>
<path d="M1845 550 c3 -5 8 -10 11 -10 2 0 4 5 4 10 0 6 -5 10 -11 10 -5 0 -7
-4 -4 -10z"/>
<path d="M2001 544 c0 -11 3 -14 6 -6 3 7 2 16 -1 19 -3 4 -6 -2 -5 -13z"/>
<path d="M26 524 c-23 -23 -20 -30 4 -9 11 10 20 20 20 22 0 7 -9 2 -24 -13z"/>
<path d="M340 530 c0 -5 5 -10 11 -10 5 0 7 5 4 10 -3 6 -8 10 -11 10 -2 0 -4
-4 -4 -10z"/>
<path d="M676 531 c-4 -7 -5 -15 -2 -18 9 -9 19 4 14 18 -4 11 -6 11 -12 0z"/>
<path d="M976 528 c-12 -37 -13 -59 -5 -64 5 -3 9 8 9 23 0 16 5 34 12 41 9 9
9 12 0 12 -7 0 -14 -6 -16 -12z"/>
<path d="M511 500 c6 -16 15 -27 20 -24 5 3 9 -2 9 -10 0 -8 -5 -18 -10 -21
-8 -5 -8 -11 -1 -19 6 -7 7 -17 3 -21 -4 -5 -1 -5 6 -1 7 5 11 14 8 21 -2 7 0
17 6 23 7 7 3 17 -11 31 -12 12 -21 25 -21 30 0 6 -4 12 -10 16 -5 3 -5 -7 1
-25z"/>
<path d="M1283 512 c1 -16 5 -19 19 -11 14 8 18 6 18 -8 1 -19 92 -70 144 -79
40 -7 46 -12 39 -30 -5 -13 -7 -13 -14 -2 -7 10 -9 10 -9 1 0 -7 1 -15 3 -17
1 -3 -9 -16 -22 -30 -17 -18 -20 -26 -10 -26 11 0 11 -2 1 -8 -7 -5 -15 -21
-18 -37 -3 -15 -18 -44 -34 -64 -22 -26 -30 -46 -30 -74 0 -58 20 -127 37
-127 9 0 11 5 7 12 -9 14 -12 32 -18 105 -4 38 -1 53 10 57 8 3 14 12 14 20 0
7 8 17 17 20 10 4 14 4 11 0 -4 -3 2 -28 12 -55 11 -27 17 -49 14 -49 -4 0 -1
-6 5 -14 6 -8 11 -18 10 -22 -3 -17 25 -74 37 -74 7 0 -4 42 -27 108 -21 59
-39 118 -40 132 -1 14 9 50 23 81 26 58 49 82 56 61 2 -7 11 -12 21 -12 9 0
52 -22 95 -49 81 -51 136 -76 136 -62 0 5 -12 12 -26 15 -15 4 -24 10 -21 13
9 8 68 -18 62 -27 -6 -10 62 -23 75 -15 6 3 10 1 10 -4 0 -6 5 -11 11 -11 5 0
8 4 4 9 -3 5 -1 12 5 16 5 3 10 -2 10 -12 1 -16 2 -16 13 -2 7 8 27 21 46 27
41 14 41 14 41 3 0 -5 -13 -12 -30 -16 -32 -7 -51 -25 -26 -25 8 0 17 4 20 9
3 5 14 7 24 4 23 -5 85 44 78 62 -2 7 1 18 7 24 14 14 21 178 8 185 -5 3 -7
-18 -4 -47 7 -102 -19 -172 -50 -132 -5 5 -6 0 -2 -12 7 -26 0 -31 -61 -39
-121 -17 -246 14 -369 91 -53 34 -56 35 -81 35 -8 0 -13 3 -11 8 3 4 -7 8 -22
9 -51 4 -86 13 -89 23 -2 5 -13 10 -24 10 -11 0 -33 14 -49 31 -16 17 -29 28
-29 24 0 -4 -6 -2 -14 5 -12 9 -15 8 -13 -8z m785 -229 c-14 -18 -19 -12 -11
16 4 16 8 19 14 10 4 -7 3 -19 -3 -26z m-343 17 c3 -5 2 -10 -4 -10 -5 0 -13
5 -16 10 -3 6 -2 10 4 10 5 0 13 -4 16 -10z m136 -48 c-7 -2 -18 1 -23 6 -8 8
-4 9 13 5 13 -4 18 -8 10 -11z"/>
<path d="M2300 519 c0 -5 5 -7 10 -4 6 3 10 8 10 11 0 2 -4 4 -10 4 -5 0 -10
-5 -10 -11z"/>
<path d="M2496 517 c3 -10 9 -15 12 -12 3 3 0 11 -7 18 -10 9 -11 8 -5 -6z"/>
<path d="M2860 510 c6 -11 15 -20 20 -20 6 0 2 9 -7 20 -10 11 -19 20 -21 20
-1 0 2 -9 8 -20z"/>
<path d="M2895 520 c-3 -5 -1 -10 4 -10 6 0 11 5 11 10 0 6 -2 10 -4 10 -3 0
-8 -4 -11 -10z"/>
<path d="M475 500 c3 -5 8 -10 11 -10 2 0 4 5 4 10 0 6 -5 10 -11 10 -5 0 -7
-4 -4 -10z"/>
<path d="M825 468 c0 -24 -4 -81 -8 -128 -5 -65 -4 -79 4 -60 14 32 25 230 13
230 -5 0 -9 -19 -9 -42z"/>
<path d="M1820 500 c-9 -6 -10 -10 -3 -10 6 0 15 5 18 10 8 12 4 12 -15 0z"/>
<path d="M415 490 c4 -6 11 -8 16 -5 14 9 11 15 -7 15 -8 0 -12 -5 -9 -10z"/>
<path d="M647 468 c-10 -17 -15 -33 -12 -36 3 -3 5 -1 5 4 0 6 9 20 20 32 11
11 16 23 12 26 -4 2 -15 -9 -25 -26z"/>
<path d="M1084 472 c3 -15 8 -45 11 -67 3 -22 10 -67 16 -100 16 -88 20 -165
8 -165 -6 0 -7 -6 -2 -12 10 -17 10 -19 12 -79 0 -29 5 -48 11 -44 5 3 7 27 5
53 -8 82 -7 180 0 193 5 8 4 10 -3 5 -7 -4 -12 0 -13 11 0 10 -2 28 -5 41 -2
12 0 22 5 22 6 0 8 10 5 23 -9 38 -12 52 -14 52 -3 0 -12 41 -13 62 0 12 -7
25 -15 28 -10 4 -12 -2 -8 -23z"/>
<path d="M2336 487 c3 -10 9 -15 12 -12 3 3 0 11 -7 18 -10 9 -11 8 -5 -6z"/>
<path d="M50 486 c0 -2 7 -6 15 -10 8 -3 15 -1 15 4 0 6 -7 10 -15 10 -8 0
-15 -2 -15 -4z"/>
<path d="M1262 469 c3 -8 9 -14 14 -14 16 0 74 -27 74 -34 0 -4 9 -7 20 -8 20
-2 29 16 10 18 -5 1 -13 2 -17 3 -7 2 -76 33 -97 44 -5 3 -7 -1 -4 -9z"/>
<path d="M1695 470 c-3 -6 1 -7 9 -4 18 7 21 14 7 14 -6 0 -13 -4 -16 -10z"/>
<path d="M2305 470 c-3 -5 -1 -10 4 -10 6 0 11 5 11 10 0 6 -2 10 -4 10 -3 0
-8 -4 -11 -10z"/>
<path d="M763 445 c0 -14 3 -27 6 -30 9 -5 8 41 0 50 -4 3 -6 -6 -6 -20z"/>
<path d="M851 454 c0 -11 3 -14 6 -6 3 7 2 16 -1 19 -3 4 -6 -2 -5 -13z"/>
<path d="M596 452 c-3 -5 1 -9 9 -9 8 0 12 4 9 9 -3 4 -7 8 -9 8 -2 0 -6 -4
-9 -8z"/>
<path d="M921 434 c0 -11 3 -14 6 -6 3 7 2 16 -1 19 -3 4 -6 -2 -5 -13z"/>
<path d="M851 414 c0 -11 3 -14 6 -6 3 7 2 16 -1 19 -3 4 -6 -2 -5 -13z"/>
<path d="M954 423 c3 -3 1 -15 -5 -27 -9 -18 -8 -19 3 -5 7 9 19 14 26 12 6
-3 12 0 12 5 0 5 -9 12 -21 15 -12 3 -18 3 -15 0z"/>
<path d="M2301 414 c0 -11 3 -14 6 -6 3 7 2 16 -1 19 -3 4 -6 -2 -5 -13z"/>
<path d="M2203 405 c-3 -9 -3 -18 -1 -21 3 -3 8 4 11 16 6 23 -1 27 -10 5z"/>
<path d="M488 404 c-3 -5 -2 -18 2 -28 3 -11 9 -15 12 -10 3 5 2 18 -2 28 -3
11 -9 15 -12 10z"/>
<path d="M660 400 c-9 -6 -10 -10 -3 -10 6 0 15 5 18 10 8 12 4 12 -15 0z"/>
<path d="M754 317 c-1 -51 0 -81 3 -67 3 14 9 30 15 35 7 7 9 3 5 -12 -3 -15
-1 -20 8 -17 10 4 10 12 2 34 -6 16 -15 26 -20 23 -5 -3 -5 2 1 12 8 15 1 69
-10 81 -2 1 -4 -39 -4 -89z"/>
<path d="M1310 390 c0 -5 5 -10 11 -10 5 0 7 5 4 10 -3 6 -8 10 -11 10 -2 0
-4 -4 -4 -10z"/>
<path d="M2385 390 c3 -5 8 -10 11 -10 2 0 4 5 4 10 0 6 -5 10 -11 10 -5 0 -7
-4 -4 -10z"/>
<path d="M2700 395 c0 -7 30 -13 34 -7 3 4 -4 9 -15 9 -10 1 -19 0 -19 -2z"/>
<path d="M981 375 c-2 -11 -4 -28 -6 -39 -2 -12 0 -15 6 -9 6 6 9 23 6 39 -3
19 -5 22 -6 9z"/>
<path d="M1251 381 c-8 -5 -9 -11 -3 -15 5 -3 12 1 16 9 6 17 6 18 -13 6z"/>
<path d="M2130 370 c-13 -25 -4 -60 16 -60 8 0 14 -5 14 -12 0 -6 2 -9 5 -6 9
9 -6 38 -20 38 -16 0 -13 29 4 40 9 5 10 10 3 14 -6 4 -16 -3 -22 -14z"/>
<path d="M549 361 c18 -16 19 -21 7 -21 -19 0 -21 -16 -3 -26 6 -4 9 -4 5 1
-4 4 -1 13 8 20 14 10 13 13 -12 29 l-29 17 24 -20z"/>
<path d="M514 325 c-8 -19 2 -45 17 -45 8 0 8 4 2 13 -6 6 -9 20 -8 30 4 21
-4 22 -11 2z"/>
<path d="M1270 330 c-13 -8 -12 -10 3 -10 9 0 17 5 17 10 0 12 -1 12 -20 0z"/>
<path d="M2212 324 c-7 -8 -8 -14 -3 -14 10 0 25 19 20 25 -2 1 -10 -3 -17
-11z"/>
<path d="M2315 330 c-3 -5 -1 -10 5 -10 6 0 8 -5 4 -12 -4 -7 -3 -8 4 -4 6 4
9 13 5 21 -6 18 -10 19 -18 5z"/>
<path d="M1530 315 c0 -3 8 -18 18 -33 52 -75 92 -143 92 -154 0 -21 24 -78
33 -78 4 0 5 -5 2 -10 -7 -12 12 -40 26 -40 12 0 0 46 -23 92 -11 21 -17 42
-14 47 3 5 1 11 -5 13 -7 2 -10 10 -7 18 2 8 19 -7 43 -40 46 -62 77 -95 99
-103 9 -4 16 -11 16 -17 0 -5 12 -10 27 -10 25 0 25 1 -14 29 -22 16 -66 59
-99 97 -127 147 -194 212 -194 189z m115 -115 c3 -6 -1 -7 -9 -4 -18 7 -21 14
-7 14 6 0 13 -4 16 -10z"/>
<path d="M1577 309 c7 -7 15 -10 18 -7 3 3 -2 9 -12 12 -14 6 -15 5 -6 -5z"/>
<path d="M567 280 c10 -11 19 -20 21 -20 1 0 -2 9 -8 20 -6 11 -15 20 -20 20
-6 0 -2 -9 7 -20z"/>
<path d="M2293 284 c0 -8 6 -13 13 -10 7 3 15 0 18 -7 3 -9 5 -9 5 0 1 7 -7
17 -17 22 -14 8 -19 6 -19 -5z"/>
<path d="M1261 274 c0 -11 3 -14 6 -6 3 7 2 16 -1 19 -3 4 -6 -2 -5 -13z"/>
<path d="M520 260 c0 -4 9 -15 20 -25 11 -10 20 -13 20 -7 0 7 -4 12 -10 12
-5 0 -7 6 -4 13 3 8 -2 14 -11 14 -8 0 -15 -3 -15 -7z"/>
<path d="M2764 258 c-4 -6 -2 -14 4 -16 7 -2 9 -9 5 -15 -4 -7 1 -6 10 2 9 7
17 19 17 25 0 6 -5 4 -10 -4 -9 -13 -14 -7 -11 13 2 11 -7 8 -15 -5z"/>
<path d="M406 240 c7 -28 12 -35 18 -29 2 2 -2 15 -10 29 l-15 25 7 -25z"/>
<path d="M1099 248 c-5 -46 -4 -70 3 -74 4 -3 8 15 8 40 0 41 -8 65 -11 34z"/>
<path d="M2331 246 c-9 -10 -8 -15 2 -19 8 -3 13 3 13 14 0 23 0 23 -15 5z"/>
<path d="M800 214 c0 -32 -2 -35 -22 -29 -20 5 -21 4 -5 -5 9 -6 17 -19 17
-28 1 -29 17 7 25 56 4 28 3 42 -4 42 -6 0 -11 -16 -11 -36z"/>
<path d="M955 240 c3 -5 11 -10 16 -10 6 0 7 5 4 10 -3 6 -11 10 -16 10 -6 0
-7 -4 -4 -10z"/>
<path d="M1185 240 c-3 -5 -1 -10 4 -10 6 0 11 5 11 10 0 6 -2 10 -4 10 -3 0
-8 -4 -11 -10z"/>
<path d="M516 222 c-3 -5 1 -9 9 -9 8 0 12 4 9 9 -3 4 -7 8 -9 8 -2 0 -6 -4
-9 -8z"/>
<path d="M581 196 c7 -15 15 -23 17 -16 3 7 -3 19 -13 28 -15 16 -16 15 -4
-12z"/>
<path d="M753 213 c-7 -2 -13 -9 -13 -15 0 -7 5 -7 13 1 8 6 18 7 22 3 5 -4 5
-1 1 6 -4 6 -8 12 -9 11 -1 0 -8 -3 -14 -6z"/>
<path d="M1215 210 c-3 -5 -1 -10 4 -10 6 0 11 5 11 10 0 6 -2 10 -4 10 -3 0
-8 -4 -11 -10z"/>
<path d="M2320 206 c0 -9 7 -12 21 -9 16 4 17 8 7 14 -19 13 -28 11 -28 -5z"/>
<path d="M960 191 c0 -5 7 -12 16 -15 14 -5 15 -4 4 9 -14 17 -20 19 -20 6z"/>
<path d="M421 174 c0 -11 3 -14 6 -6 3 7 2 16 -1 19 -3 4 -6 -2 -5 -13z"/>
<path d="M540 181 c0 -10 19 -25 25 -20 1 2 -3 10 -11 17 -8 7 -14 8 -14 3z"/>
<path d="M2770 170 c0 -5 5 -10 10 -10 6 0 10 5 10 10 0 6 -4 10 -10 10 -5 0
-10 -4 -10 -10z"/>
<path d="M947 151 c-3 -12 -1 -21 4 -21 4 0 6 -7 3 -15 -4 -10 -2 -13 8 -10
16 7 17 40 1 56 -7 7 -12 4 -16 -10z"/>
<path d="M2025 150 c-3 -5 1 -10 10 -10 9 0 13 5 10 10 -3 6 -8 10 -10 10 -2
0 -7 -4 -10 -10z"/>
<path d="M881 124 c-1 -17 2 -52 5 -77 5 -36 9 -43 19 -34 9 8 9 14 2 19 -7 4
-6 12 4 24 12 15 12 16 0 9 -10 -6 -12 -4 -6 5 4 7 2 16 -6 21 -7 4 -11 11 -7
14 3 3 13 -1 22 -10 14 -15 16 -15 16 -1 0 9 -7 16 -15 16 -9 0 -20 10 -25 23
-8 20 -9 20 -9 -9z"/>
<path d="M1245 140 c-3 -6 1 -7 9 -4 18 7 21 14 7 14 -6 0 -13 -4 -16 -10z"/>
<path d="M1980 140 c-8 -5 -11 -12 -7 -16 4 -4 13 -2 19 4 15 15 7 24 -12 12z"/>
<path d="M2210 140 c-9 -6 -10 -10 -3 -10 6 0 15 5 18 10 8 12 4 12 -15 0z"/>
<path d="M560 130 c0 -5 5 -10 11 -10 5 0 7 5 4 10 -3 6 -8 10 -11 10 -2 0 -4
-4 -4 -10z"/>
<path d="M792 115 c-12 -14 -17 -25 -12 -25 6 0 8 -10 4 -24 -6 -24 10 -44 21
-26 3 5 2 10 -2 10 -13 0 -7 58 7 75 21 26 5 16 -18 -10z"/>
<path d="M391 114 c0 -11 3 -14 6 -6 3 7 2 16 -1 19 -3 4 -6 -2 -5 -13z"/>
<path d="M407 100 c-6 -25 -4 -36 8 -43 8 -4 15 -13 15 -20 0 -8 -4 -6 -11 3
-9 12 -10 12 -5 -3 3 -10 6 -23 6 -28 0 -5 7 -9 15 -9 16 0 15 9 -10 95 l-11
40 -7 -35z"/>
<path d="M611 104 c0 -11 3 -14 6 -6 3 7 2 16 -1 19 -3 4 -6 -2 -5 -13z"/>
<path d="M2780 110 c0 -5 7 -10 16 -10 8 0 12 5 9 10 -3 6 -10 10 -16 10 -5 0
-9 -4 -9 -10z"/>
<path d="M575 80 c3 -5 8 -10 11 -10 2 0 4 5 4 10 0 6 -5 10 -11 10 -5 0 -7
-4 -4 -10z"/>
<path d="M949 82 c0 -4 -3 -19 -5 -34 -3 -16 -1 -28 4 -28 4 0 8 10 9 22 1 11
7 24 13 28 8 5 7 9 -4 13 -9 4 -16 3 -17 -1z"/>
<path d="M1209 76 c6 -7 8 -21 5 -31 -5 -13 -3 -16 7 -13 16 5 19 39 4 50 -17
13 -28 9 -16 -6z"/>
<path d="M620 71 c0 -6 4 -13 10 -16 6 -3 7 1 4 9 -7 18 -14 21 -14 7z"/>
<path d="M1958 73 c7 -3 16 -2 19 1 4 3 -2 6 -13 5 -11 0 -14 -3 -6 -6z"/>
<path d="M1250 61 c0 -6 4 -13 10 -16 6 -3 7 1 4 9 -7 18 -14 21 -14 7z"/>
<path d="M1980 54 c0 -5 7 -18 15 -28 8 -11 15 -16 15 -10 0 5 -7 18 -15 28
-8 11 -15 16 -15 10z"/>
<path d="M665 40 c3 -5 8 -10 11 -10 2 0 4 5 4 10 0 6 -5 10 -11 10 -5 0 -7
-4 -4 -10z"/>
<path d="M1316 14 c-4 -10 -1 -14 6 -12 15 5 23 28 10 28 -5 0 -13 -7 -16 -16z"/>
</g>
</svg>
